<?xml version="1.0" standalone="no"?>
<!DOCTYPE svg PUBLIC "-//W3C//DTD SVG 20010904//EN"
 "http://www.w3.org/TR/2001/REC-SVG-20010904/DTD/svg10.dtd">
<svg version="1.0" xmlns="http://www.w3.org/2000/svg"
 width="549.000000pt" height="602.000000pt" viewBox="0 0 549.000000 602.000000"
 preserveAspectRatio="xMidYMid meet">

<g transform="translate(0.000000,602.000000) scale(0.100000,-0.100000)"
fill="#000000" stroke="none">
<path d="M2600 4798 c-19 -12 -39 -28 -43 -35 -11 -18 -27 -16 -27 4 0 27 -23
-1 -26 -32 -2 -15 -14 -38 -28 -52 -25 -25 -53 -28 -98 -9 -11 5 -18 1 -23
-13 -3 -12 -14 -21 -23 -21 -15 -1 -15 -2 1 -14 12 -9 14 -16 8 -21 -6 -3 -11
-1 -11 6 0 8 -4 8 -16 -1 -8 -8 -27 -15 -41 -16 -14 -2 -31 -8 -36 -13 -6 -6
-22 -11 -35 -11 -13 0 -20 -4 -17 -10 8 -13 -8 -13 -21 -1 -13 13 -94 -9 -117
-32 -10 -10 -16 -25 -13 -33 3 -8 2 -13 -3 -10 -5 3 -11 -4 -14 -15 -4 -16 -2
-19 10 -15 13 6 14 4 3 -9 -9 -11 -16 -13 -24 -5 -5 5 -18 10 -28 10 -15 0
-17 -3 -8 -19 12 -23 13 -61 2 -61 -4 0 -13 5 -19 11 -9 9 -11 -2 -9 -41 1
-47 -1 -53 -24 -62 l-25 -10 23 -9 c21 -8 22 -11 8 -24 -8 -8 -27 -15 -42 -15
l-28 0 34 -29 c19 -16 39 -26 44 -23 5 3 6 0 3 -6 -8 -12 -47 -4 -47 9 0 5 -4
9 -10 9 -20 0 -9 -31 14 -42 28 -12 47 -44 21 -34 -8 3 -15 1 -15 -4 0 -6 4
-10 10 -10 5 0 7 -25 4 -62 -3 -39 0 -91 10 -138 9 -41 23 -122 32 -180 8 -58
24 -143 35 -190 11 -47 21 -96 22 -110 2 -25 1 -26 -46 -13 -14 5 -16 0 -13
-28 3 -19 5 -38 6 -44 0 -5 6 -3 13 5 21 26 54 22 77 -10 18 -26 19 -31 6 -36
-11 -4 -14 -14 -9 -37 8 -41 9 -42 28 -27 9 7 17 11 19 9 2 -2 7 -56 11 -119
11 -174 12 -183 24 -213 6 -16 11 -38 11 -50 0 -12 15 -59 34 -104 l33 -83
-51 0 c-30 0 -61 -6 -73 -15 -22 -16 -153 -198 -153 -214 0 -5 -7 -14 -15 -21
-38 -32 -11 -98 89 -217 42 -50 76 -95 76 -100 0 -15 -70 -50 -166 -83 -49
-18 -136 -53 -194 -80 -58 -26 -144 -62 -192 -79 -114 -40 -354 -138 -399
-163 -64 -36 -163 -208 -175 -304 -3 -27 -17 -78 -32 -114 -24 -62 -26 -75
-28 -270 -1 -123 -8 -248 -18 -314 -9 -60 -16 -139 -16 -175 0 -36 -8 -130
-17 -209 -15 -125 -15 -144 -3 -152 13 -8 12 -10 -2 -10 -11 0 -18 -8 -18 -20
0 -23 10 -26 29 -7 10 10 11 9 6 -5 -6 -15 -2 -18 23 -18 39 0 95 -46 89 -72
-4 -13 0 -18 14 -18 12 0 16 5 13 15 -4 9 5 33 19 54 27 41 72 58 120 46 21
-6 26 -14 32 -61 6 -50 9 -54 32 -54 26 0 26 0 7 22 -19 21 -19 21 1 13 11 -5
96 -11 188 -13 l169 -4 -4 99 c-3 88 -6 101 -28 126 -30 34 -79 117 -80 135 0
7 -11 37 -23 65 -13 29 -36 104 -51 167 -16 63 -46 157 -67 208 -58 136 -109
263 -109 272 0 7 46 31 67 36 42 8 173 57 173 65 0 4 7 6 15 3 11 -5 14 -1 9
12 -5 18 -5 18 8 2 14 -16 16 -16 33 0 10 10 14 11 10 3 -6 -11 2 -13 46 -7
144 16 424 30 609 30 512 -1 699 -4 705 -14 4 -6 20 -86 36 -179 28 -162 43
-297 55 -486 6 -94 44 -351 71 -467 11 -54 18 -68 33 -68 22 0 31 19 19 41 -7
13 -14 55 -21 127 -1 6 -4 12 -8 12 -7 0 -9 9 -13 57 -1 18 -5 33 -8 33 -3 0
-6 6 -7 13 0 6 -6 30 -12 52 -28 103 -27 98 -35 240 -4 66 -8 122 -10 125 -2
3 -4 55 -6 115 -1 61 -6 126 -10 145 -4 19 -10 58 -13 85 -3 28 -9 64 -12 80
-4 17 -7 46 -8 65 0 19 -5 38 -9 41 -4 3 -10 18 -13 34 -3 16 -7 32 -10 37 -3
4 1 8 8 8 9 0 10 3 2 8 -18 11 -27 52 -29 120 0 41 -6 66 -14 71 -10 7 -10 10
-1 13 9 3 8 9 -4 21 -10 9 -13 17 -7 17 6 0 11 5 11 11 0 5 -5 7 -11 3 -8 -4
-9 0 -4 15 4 13 2 21 -5 21 -7 0 -9 8 -5 19 3 11 1 22 -5 26 -15 9 -12 32 5
39 10 3 14 -1 12 -14 -1 -10 3 -19 8 -19 6 -1 10 10 10 24 0 29 18 50 39 42
10 -4 15 -20 14 -54 0 -29 13 -88 34 -153 35 -105 38 -140 11 -140 -8 0 -20
-6 -27 -13 -11 -10 -10 -15 1 -26 8 -7 12 -19 9 -27 -3 -8 0 -14 7 -14 8 0 8
-3 -2 -9 -8 -5 -9 -10 -2 -12 5 -2 11 -19 13 -37 1 -17 5 -32 8 -32 3 0 6 -8
7 -18 2 -30 8 -47 18 -54 6 -5 5 -11 -4 -17 -9 -6 -10 -10 -2 -12 6 -2 12 -25
14 -52 1 -26 5 -47 8 -47 4 0 6 -16 5 -35 -1 -19 3 -37 9 -39 6 -3 4 -9 -5
-15 -8 -6 -10 -11 -5 -11 6 0 11 -30 12 -68 2 -87 11 -180 18 -192 4 -6 0 -10
-7 -10 -8 0 -9 -3 -3 -8 14 -10 15 -122 1 -122 -8 0 -8 -3 1 -8 6 -4 14 -34
18 -67 4 -33 9 -71 11 -85 11 -55 15 -76 16 -87 1 -7 6 -13 11 -13 6 0 8 -3 4
-6 -3 -4 0 -18 7 -33 7 -14 12 -33 11 -41 -1 -8 3 -21 8 -27 5 -7 7 -20 3 -28
-3 -8 0 -15 7 -15 8 0 6 -4 -3 -10 -11 -7 -11 -10 -2 -10 7 0 11 -4 7 -9 -3
-5 0 -13 6 -17 8 -4 7 -9 -2 -15 -11 -7 -11 -9 -1 -9 7 0 11 -4 7 -9 -5 -9 33
-27 40 -19 4 4 -21 133 -50 258 -36 157 -45 218 -65 435 -11 127 -30 293 -41
369 -11 77 -18 144 -15 151 3 8 19 10 48 6 23 -3 90 -2 148 2 108 9 367 4 615
-12 213 -14 475 -87 475 -134 0 -28 -83 -272 -119 -349 -17 -36 -31 -72 -31
-80 0 -7 -14 -40 -30 -72 -22 -42 -30 -73 -30 -110 0 -56 -59 -243 -114 -361
l-33 -70 111 -2 c129 -3 156 -8 156 -28 0 -12 -26 -15 -142 -18 -82 -1 -28 -4
125 -5 l267 -2 0 24 c0 12 12 45 27 72 22 41 27 64 30 147 3 65 -1 124 -11
174 -9 41 -16 110 -16 153 0 45 -7 96 -16 121 -8 24 -24 116 -35 204 -13 109
-30 190 -51 254 -28 87 -30 102 -25 187 5 88 4 97 -22 146 -77 151 -158 216
-376 298 -77 29 -156 60 -175 70 -19 9 -59 25 -88 35 -109 35 -226 92 -298
145 l-74 55 5 40 c5 30 0 50 -17 82 -69 127 -120 212 -133 223 -22 19 -19 31
27 96 37 54 61 94 110 190 14 26 48 179 48 215 0 4 10 18 22 29 18 16 20 23
10 29 -11 6 -8 13 10 27 14 11 23 25 20 32 -2 7 2 19 8 27 7 8 10 22 6 30 -3
8 4 31 15 50 12 19 19 40 17 47 -3 7 -13 -2 -23 -20 -11 -18 -23 -32 -26 -32
-4 0 -6 -15 -4 -32 2 -18 1 -27 -2 -20 -2 6 -9 10 -13 7 -21 -13 -2 43 23 70
28 29 28 32 23 108 -4 50 -3 77 4 77 5 0 10 -5 10 -11 0 -8 4 -8 15 1 8 6 19
9 25 5 6 -4 10 15 10 54 0 34 -4 61 -8 61 -5 0 -21 -14 -37 -30 -21 -22 -31
-27 -37 -18 -14 22 -9 47 15 69 12 12 16 19 10 15 -17 -9 -16 10 2 81 8 31 15
83 15 114 0 32 11 104 25 160 13 56 22 106 19 110 -3 5 4 30 15 55 17 38 21
69 22 168 0 66 -4 133 -10 148 -6 15 -8 35 -5 43 5 11 2 13 -10 9 -13 -5 -16
1 -16 26 0 30 -2 32 -27 26 -16 -3 -23 -3 -16 0 14 6 -2 43 -24 57 -7 4 -13
13 -13 18 0 11 -20 34 -32 37 -5 1 -8 5 -7 8 1 11 -74 64 -92 64 -10 0 -19 9
-21 21 -2 12 -10 26 -18 30 -59 31 -133 61 -162 66 -18 3 -35 9 -38 13 -3 4
-23 13 -45 18 -50 14 -226 -7 -252 -29 -22 -19 -53 -13 -54 9 0 12 -3 11 -9
-5 -15 -37 -40 -29 -40 12 0 24 -5 35 -14 35 -8 0 -16 4 -18 10 -1 5 -19 0
-38 -12z m-40 -78 c0 -5 -2 -10 -4 -10 -3 0 -8 5 -11 10 -3 6 -1 10 4 10 6 0
11 -4 11 -10z m40 -21 c0 -6 -4 -7 -10 -4 -5 3 -10 11 -10 16 0 6 5 7 10 4 6
-3 10 -11 10 -16z m96 -624 c-6 -17 19 -21 29 -5 16 26 121 -10 110 -38 -3 -9
1 -11 15 -7 13 4 20 2 18 -5 -2 -7 3 -15 10 -17 6 -3 12 0 12 6 0 6 6 11 14
11 9 0 12 -7 9 -20 -5 -17 0 -20 31 -20 22 0 35 -4 31 -10 -4 -6 1 -7 11 -3
13 5 15 2 9 -16 -6 -20 -4 -22 18 -19 27 3 60 -21 87 -62 8 -12 23 -31 33 -40
13 -12 16 -25 11 -44 -4 -16 -2 -26 5 -26 6 0 11 -13 11 -29 0 -17 5 -33 10
-36 7 -4 6 -13 -1 -26 -8 -15 -7 -24 2 -35 18 -21 4 -28 -23 -10 -20 13 -30
13 -82 1 -32 -8 -89 -15 -127 -17 -38 -2 -69 -6 -69 -9 0 -15 -109 -51 -132
-43 -13 4 -35 6 -50 5 -20 -2 -28 2 -28 13 0 11 -10 16 -32 17 -18 1 -84 3
-146 5 l-113 4 -86 -50 c-48 -28 -97 -50 -110 -50 -20 0 -21 2 -11 33 5 17 19
39 29 49 11 9 19 23 19 31 0 8 13 26 28 39 25 21 28 30 29 88 1 84 13 170 24
170 5 0 9 8 9 18 0 12 8 17 25 17 21 0 25 -5 25 -27 0 -16 5 -28 11 -28 5 0 7
5 4 10 -10 16 5 50 21 50 8 0 14 10 14 24 0 17 7 25 25 29 25 4 25 4 8 -15
-16 -18 -16 -19 3 -12 10 4 24 14 30 22 7 10 19 13 38 8 18 -4 32 -2 42 9 17
17 44 20 44 5 0 -19 18 -10 60 30 46 43 55 48 46 25z m164 5 c0 -5 -4 -10 -10
-10 -5 0 -10 5 -10 10 0 6 5 10 10 10 6 0 10 -4 10 -10z m-255 -30 c-3 -5 -12
-10 -18 -10 -7 0 -6 4 3 10 19 12 23 12 15 0z m300 0 c-3 -5 -12 -10 -18 -10
-7 0 -6 4 3 10 19 12 23 12 15 0z m-425 -4 c0 -3 -4 -8 -10 -11 -5 -3 -10 -1
-10 4 0 6 5 11 10 11 6 0 10 -2 10 -4z m-100 -52 c0 -8 -5 -12 -10 -9 -6 4 -8
11 -5 16 9 14 15 11 15 -7z m27 -420 c-3 -3 -12 -4 -19 -1 -8 3 -5 6 6 6 11 1
17 -2 13 -5z m558 -4 c-3 -5 -11 -10 -16 -10 -6 0 -7 5 -4 10 3 6 11 10 16 10
6 0 7 -4 4 -10z m158 -9 c17 -6 18 -8 2 -21 -12 -10 -13 -15 -4 -21 7 -4 9
-14 6 -23 -6 -14 -20 -16 -82 -14 -65 3 -73 5 -58 16 16 11 16 14 3 23 -12 8
-12 9 4 7 10 -2 21 3 23 10 6 16 -16 15 -47 -3 -29 -17 -59 -20 -44 -5 30 30
151 50 197 31z m-614 -17 c2 -2 -1 -10 -8 -18 -9 -11 -7 -15 14 -20 50 -13 27
-31 -55 -44 -44 -7 -88 -16 -97 -19 -10 -4 -14 -2 -9 5 10 16 -9 23 -37 13
-19 -7 -27 -5 -40 9 -15 18 -14 21 13 40 51 36 101 50 160 44 30 -3 57 -8 59
-10z m235 -20 c27 -27 -4 -45 -48 -28 -20 8 -21 24 -1 24 8 0 15 5 15 10 0 15
16 12 34 -6z m459 8 c11 -3 -11 -42 -24 -42 -6 0 -5 9 2 23 11 19 10 20 -3 9
-15 -12 -48 -7 -48 7 0 5 49 7 73 3z m-383 -22 c0 -5 -12 -10 -27 -10 -22 0
-25 2 -13 10 20 13 40 13 40 0z m580 -10 c0 -5 -6 -10 -12 -11 -7 0 -4 -4 6
-8 19 -7 19 -8 -2 -13 -18 -5 -22 -2 -22 18 0 15 6 24 15 24 8 0 15 -4 15 -10z
m-1270 -45 c0 -25 -13 -31 -44 -19 -19 7 -21 30 -3 37 31 13 47 7 47 -18z
m140 -1 c11 -12 11 -15 1 -12 -8 2 -14 -9 -16 -26 -5 -36 -15 -47 -15 -15 0
24 10 69 15 69 1 0 8 -7 15 -16z m502 -31 c10 -9 18 -28 18 -42 1 -14 7 -37
15 -51 8 -14 15 -36 15 -50 0 -14 7 -34 15 -44 8 -10 12 -23 8 -29 -3 -6 -2
-7 4 -4 13 8 73 -66 73 -91 0 -10 -11 -24 -25 -30 -18 -8 -25 -8 -25 -1 0 17
-48 1 -96 -32 -23 -16 -47 -29 -51 -29 -5 0 -25 11 -44 25 -28 21 -43 25 -84
23 -61 -4 -70 16 -31 66 14 19 23 36 19 39 -3 3 3 14 13 24 31 31 73 104 90
157 14 44 44 86 62 86 3 0 14 -7 24 -17z m-147 -40 c-5 -33 -4 -35 5 -14 17
39 24 15 10 -34 -17 -61 -79 -129 -136 -151 -40 -15 -54 -16 -100 -6 -63 13
-108 42 -129 82 l-15 28 55 17 c33 11 67 15 86 11 33 -6 100 9 135 31 11 7 33
14 48 15 23 2 27 6 23 25 -3 19 2 27 21 32 2 1 0 -16 -3 -36z m-563 3 c6 4 8
-4 6 -17 -1 -13 -7 -22 -13 -19 -5 2 -9 11 -7 19 2 9 -2 12 -14 7 -15 -6 -15
-4 -3 10 8 10 15 12 17 5 2 -6 8 -8 14 -5z m198 -20 c0 -3 -4 -8 -10 -11 -5
-3 -10 -1 -10 4 0 6 5 11 10 11 6 0 10 -2 10 -4z m700 -26 c12 -8 12 -10 -5
-10 -19 -1 -19 -1 -1 -15 21 -16 110 -17 140 -2 13 6 16 6 12 -2 -4 -6 0 -11
8 -11 9 0 16 5 16 11 0 8 4 8 13 1 8 -7 18 -7 27 -2 8 5 25 7 36 4 17 -4 24 0
29 16 4 12 9 19 12 17 8 -9 -34 -81 -64 -109 -37 -35 -73 -48 -133 -48 -27 0
-61 5 -77 11 -34 13 -80 55 -99 91 -19 36 -18 41 4 21 11 -10 17 -22 14 -27
-3 -5 1 -7 9 -4 9 3 13 16 11 36 -3 26 0 32 15 32 10 0 25 -5 33 -10z m90 -24
c0 -2 -9 -2 -20 1 -11 3 -20 9 -20 15 0 5 9 4 20 -2 11 -6 20 -12 20 -14z
m-880 -3 c0 -5 11 -13 25 -20 19 -8 25 -8 25 0 0 7 15 -11 33 -38 21 -33 49
-59 81 -76 31 -17 44 -29 35 -33 -8 -3 24 -4 71 -3 47 2 93 7 102 11 17 8 17
6 3 -20 -8 -16 -15 -34 -15 -39 0 -6 -13 -23 -30 -38 -16 -16 -30 -34 -30 -40
0 -7 -11 -24 -25 -39 -26 -28 -38 -83 -12 -56 19 20 85 107 91 121 3 8 12 4
24 -10 11 -13 27 -23 36 -23 26 0 26 -15 -1 -16 -13 -1 -33 -10 -44 -20 -10
-9 -19 -14 -19 -11 0 4 -22 -15 -50 -42 l-50 -49 0 -71 0 -72 25 18 c13 10 25
24 25 30 0 9 10 11 30 6 25 -5 29 -3 24 11 -7 18 11 22 22 5 4 -7 9 -8 13 -1
8 13 280 22 288 9 3 -5 -2 -14 -11 -19 -9 -5 -16 -17 -16 -27 0 -37 -41 -59
-119 -65 -41 -4 -76 -8 -78 -9 -1 -2 2 -20 8 -40 7 -26 16 -37 29 -37 12 0 17
-5 14 -14 -6 -14 22 -30 37 -20 13 8 11 -20 -3 -34 -18 -18 3 -14 24 5 10 9
18 26 18 37 1 21 1 21 16 1 16 -19 16 -19 12 8 -4 22 -3 25 8 16 11 -9 14 -7
14 10 0 19 3 20 20 11 16 -8 20 -8 20 3 0 19 104 123 129 130 12 3 19 1 15 -4
-3 -5 4 -9 16 -9 19 0 20 -4 14 -52 -4 -29 -13 -59 -21 -66 -7 -7 -13 -20 -13
-28 0 -35 -41 -94 -76 -109 -20 -8 -41 -12 -47 -8 -5 3 -17 -3 -25 -13 -11
-15 -15 -16 -19 -5 -5 11 -7 11 -14 0 -7 -11 -9 -10 -9 3 0 14 -7 16 -35 11
-31 -5 -35 -3 -30 13 4 11 0 8 -9 -6 -15 -26 -64 -35 -78 -15 -4 6 -8 2 -8 -7
0 -10 -4 -18 -10 -18 -5 0 -10 7 -10 16 0 8 -5 12 -11 8 -6 -3 -15 0 -20 7 -6
11 -11 11 -20 2 -14 -14 -37 -6 -65 22 -19 19 -54 47 -99 80 -12 9 -15 14 -7
15 11 0 10 3 -1 14 -9 9 -13 29 -11 53 2 21 -3 48 -12 60 -8 12 -14 30 -14 40
0 15 -2 16 -10 3 -8 -13 -10 -13 -10 1 0 9 -6 19 -13 22 -8 3 -14 19 -15 36
-1 45 -11 71 -28 71 -8 0 -23 13 -32 30 -9 16 -20 30 -24 30 -5 0 -8 7 -8 15
0 8 -4 15 -10 15 -5 0 -10 9 -10 20 0 11 -10 49 -22 83 -11 34 -24 99 -27 145
-6 74 -4 82 11 82 10 0 18 -3 18 -7z m1080 -52 c-11 -23 -26 -41 -33 -42 -9 0
-9 -2 1 -6 24 -9 -34 -43 -75 -43 l-38 0 40 19 c41 18 115 91 115 113 0 6 3 9
6 6 3 -3 -4 -24 -16 -47z m-405 -1 c3 -5 1 -10 -4 -10 -6 0 -11 5 -11 10 0 6
2 10 4 10 3 0 8 -4 11 -10z m158 -110 c31 -6 76 -11 100 -10 92 4 107 1 107
-19 0 -11 -8 -26 -18 -33 -20 -15 -57 -70 -54 -80 1 -4 -9 -10 -23 -14 -19 -5
-25 -13 -27 -38 -3 -54 4 -111 13 -117 6 -3 4 -10 -3 -17 -21 -17 -39 1 -40
39 0 19 -5 40 -11 47 -7 9 -5 16 7 25 16 12 15 13 -9 12 -14 0 -30 -6 -34 -14
-7 -11 -12 -10 -22 8 -8 11 -19 21 -26 21 -6 0 -14 9 -18 20 -7 24 9 58 19 41
9 -14 26 -14 26 0 0 5 -11 35 -25 65 -14 30 -25 58 -25 61 0 4 -10 18 -22 32
l-23 26 25 -21 c14 -12 51 -27 83 -34z m-343 -140 c12 -8 11 -10 -7 -10 -13 0
-23 5 -23 10 0 13 11 13 30 0z m96 -122 c0 -25 -12 -41 -38 -51 -21 -7 -21 -7
-8 27 6 17 6 26 0 26 -6 0 -10 5 -10 10 0 6 13 10 28 10 22 0 28 -5 28 -22z
m129 -88 c-10 -16 13 -20 25 -5 7 8 19 15 26 15 26 0 14 -15 -26 -33 -37 -17
-59 -46 -24 -33 8 3 12 2 9 -4 -3 -6 -18 -7 -33 -4 -25 6 -26 5 -9 -8 18 -13
17 -15 -8 -26 -37 -17 -40 -11 -16 31 11 19 17 38 13 42 -3 3 2 3 12 -1 16 -6
18 -4 12 19 -5 21 -3 25 9 21 8 -3 13 -10 10 -14z m193 -9 c3 -8 -1 -12 -9 -9
-7 2 -15 10 -17 17 -3 8 1 12 9 9 7 -2 15 -10 17 -17z m-24 -27 c3 -8 2 -12
-4 -9 -6 3 -10 10 -10 16 0 14 7 11 14 -7z m-770 -347 c-1 -9 9 -18 22 -21 13
-4 24 -11 24 -16 0 -6 5 -10 11 -10 16 0 148 -87 175 -117 13 -14 21 -30 18
-35 -7 -11 27 -39 38 -32 5 3 8 -2 8 -11 0 -9 3 -14 8 -12 4 3 23 -4 42 -14
l35 -20 -30 6 c-16 2 -58 9 -91 14 -34 5 -85 21 -114 36 -61 31 -153 113 -143
128 3 5 1 7 -5 3 -6 -3 -13 -2 -17 4 -3 5 -1 10 5 10 7 0 4 12 -7 31 -12 22
-14 33 -7 36 7 2 9 13 6 25 -3 15 -1 19 9 16 8 -3 13 -12 13 -21z m383 -413
c-3 -3 -12 -4 -19 -1 -8 3 -5 6 6 6 11 1 17 -2 13 -5z m-312 -24 c3 -5 -3 -10
-14 -10 -12 0 -21 5 -21 10 0 6 6 10 14 10 8 0 18 -4 21 -10z m340 -1 c11 -16
-3 -56 -21 -63 -9 -4 -23 -1 -30 5 -21 17 -17 49 9 59 30 12 35 12 42 -1z
m151 -84 c11 -17 14 -35 10 -59 -13 -68 -60 -75 -82 -11 -12 35 -11 42 4 60
36 42 46 44 68 10z m-261 -15 c3 -5 2 -10 -4 -10 -5 0 -13 5 -16 10 -3 6 -2
10 4 10 5 0 13 -4 16 -10z m-1506 -292 c-8 -14 -14 -18 -17 -10 -4 13 17 46
25 38 3 -2 -1 -15 -8 -28z m-43 -70 c-15 -21 -16 -22 -16 -2 0 11 6 26 12 32
19 19 22 -4 4 -30z m112 -93 c14 -31 15 -35 3 -35 -5 0 -14 14 -20 30 -12 36
1 40 17 5z m-38 -26 c0 -5 -4 -8 -9 -5 -5 4 -11 1 -13 -6 -2 -6 -10 -8 -16 -4
-20 12 -13 26 13 26 14 0 25 -5 25 -11z m127 -5 c-3 -3 -12 -4 -19 -1 -8 3 -5
6 6 6 11 1 17 -2 13 -5z m39 -42 c-4 -3 -14 2 -24 13 -9 10 -12 15 -6 11 7 -3
15 2 20 12 6 15 8 14 12 -6 2 -13 1 -26 -2 -30z m-166 13 c-7 -9 -15 -13 -17
-11 -7 7 7 26 19 26 6 0 6 -6 -2 -15z m74 -1 c9 -24 7 -27 -9 -10 -17 17 -19
26 -6 26 5 0 12 -7 15 -16z m-44 -14 c0 -5 -4 -10 -10 -10 -5 0 -10 5 -10 10
0 6 5 10 10 10 6 0 10 -4 10 -10z m-10 -30 c0 -5 -4 -12 -10 -15 -5 -3 -10 -4
-10 -1 0 2 -3 12 -6 20 -5 12 -2 15 10 10 9 -3 16 -10 16 -14z m90 1 c0 -5 3
-18 6 -28 6 -16 5 -16 -9 2 -19 23 -21 35 -7 35 6 0 10 -4 10 -9z m-52 -53
c-7 -19 -38 -22 -38 -4 0 10 9 16 21 16 12 0 19 -5 17 -12z m279 -9 c-14 -8
-22 -8 -30 0 -8 8 -3 11 19 11 25 -1 27 -2 11 -11z m-174 -19 c-3 -11 -12 -20
-19 -20 -20 0 -17 28 4 33 9 3 18 5 19 6 0 0 -1 -8 -4 -19z m-73 -41 c0 -5 -4
-9 -10 -9 -5 0 -10 7 -10 16 0 8 5 12 10 9 6 -3 10 -10 10 -16z m220 0 c0 -5
-4 -9 -10 -9 -5 0 -10 7 -10 16 0 8 5 12 10 9 6 -3 10 -10 10 -16z m-362 -99
c7 -11 8 -20 2 -20 -5 0 -14 9 -20 20 -6 11 -7 20 -3 20 5 0 14 -9 21 -20z
m62 -110 c0 -5 -2 -10 -4 -10 -3 0 -8 5 -11 10 -3 6 -1 10 4 10 6 0 11 -4 11
-10z m-193 -236 c-3 -3 -12 -4 -19 -1 -8 3 -5 6 6 6 11 1 17 -2 13 -5z m23
-124 c0 -5 -2 -10 -4 -10 -3 0 -8 5 -11 10 -3 6 -1 10 4 10 6 0 11 -4 11 -10z
m6 -39 c-3 -4 -1 -22 4 -40 5 -19 5 -31 -1 -31 -10 0 -14 8 -23 53 -5 20 -3
27 9 27 9 0 14 -4 11 -9z m74 -32 c0 -11 -3 -11 -24 -3 -23 9 -20 23 4 17 11
-3 20 -9 20 -14z m50 -33 c0 -3 -4 -8 -10 -11 -5 -3 -10 -1 -10 4 0 6 5 11 10
11 6 0 10 -2 10 -4z m-54 -21 c9 -8 11 -15 6 -15 -5 0 -15 7 -22 15 -7 8 -9
15 -6 15 4 0 14 -7 22 -15z m-146 -135 c0 -5 -5 -10 -11 -10 -5 0 -7 5 -4 10
3 6 8 10 11 10 2 0 4 -4 4 -10z m-8 -62 c-7 -7 -12 -8 -12 -2 0 14 12 26 19
19 2 -3 -1 -11 -7 -17z m3 -48 c-3 -5 -11 -10 -16 -10 -6 0 -7 5 -4 10 3 6 11
10 16 10 6 0 7 -4 4 -10z m25 -110 c0 -5 -4 -10 -10 -10 -5 0 -10 5 -10 10 0
6 5 10 10 10 6 0 10 -4 10 -10z"/>
<path d="M2766 3996 c3 -8 12 -17 20 -20 11 -4 12 -2 1 14 -14 23 -29 27 -21
6z"/>
<path d="M2578 3993 c7 -3 16 -2 19 1 4 3 -2 6 -13 5 -11 0 -14 -3 -6 -6z"/>
<path d="M2820 3960 c-9 -6 -10 -10 -3 -10 6 0 15 5 18 10 8 12 4 12 -15 0z"/>
<path d="M2878 3953 c7 -3 16 -2 19 1 4 3 -2 6 -13 5 -11 0 -14 -3 -6 -6z"/>
<path d="M2400 3910 c0 -5 5 -10 11 -10 5 0 7 5 4 10 -3 6 -8 10 -11 10 -2 0
-4 -4 -4 -10z"/>
<path d="M2305 3886 c-11 -8 -14 -15 -8 -19 6 -4 16 0 23 8 17 21 8 28 -15 11z"/>
<path d="M2390 2929 c0 -5 5 -7 10 -4 6 3 10 8 10 11 0 2 -4 4 -10 4 -5 0 -10
-5 -10 -11z"/>
<path d="M2670 1973 c0 -7 -7 -13 -15 -13 -20 0 -19 -19 1 -27 23 -9 38 11 25
34 -6 10 -11 12 -11 6z"/>
<path d="M2805 1869 c-4 -17 -4 -33 -1 -36 3 -4 6 3 6 15 0 26 16 37 24 16 9
-25 7 -41 -4 -24 -5 8 -10 11 -10 5 0 -5 4 -16 9 -24 15 -24 25 28 10 55 -17
32 -26 30 -34 -7z"/>
<path d="M2805 1800 c3 -5 8 -10 11 -10 2 0 4 5 4 10 0 6 -5 10 -11 10 -5 0
-7 -4 -4 -10z"/>
<path d="M3480 3251 c0 -17 2 -31 4 -31 8 0 13 51 5 56 -5 3 -9 -9 -9 -25z"/>
<path d="M3461 3104 c0 -11 3 -14 6 -6 3 7 2 16 -1 19 -3 4 -6 -2 -5 -13z"/>
<path d="M2891 1704 c0 -11 3 -14 6 -6 3 7 2 16 -1 19 -3 4 -6 -2 -5 -13z"/>
<path d="M2876 1644 c-9 -23 -8 -24 14 -24 11 0 20 2 20 4 0 12 -13 36 -20 36
-4 0 -11 -7 -14 -16z"/>
<path d="M2904 1486 c-8 -20 22 -50 41 -42 11 4 12 11 6 28 -10 27 -39 36 -47
14z"/>
<path d="M650 1338 c-6 -24 -15 -53 -20 -66 -6 -13 -10 -30 -10 -39 0 -16 -53
-132 -79 -172 -8 -13 -17 -33 -19 -45 -9 -52 -13 -199 -7 -224 7 -26 8 -25 21
18 7 25 16 81 19 125 5 58 19 118 55 221 45 134 68 224 56 224 -3 0 -10 -19
-16 -42z"/>
<path d="M476 548 c-12 -48 -19 -181 -9 -175 6 4 14 48 18 97 7 90 3 123 -9
78z"/>
<path d="M1060 43 c0 -25 13 -43 32 -43 11 0 16 5 13 11 -4 6 -10 8 -13 4 -3
-3 -12 5 -19 17 -7 13 -12 18 -13 11z"/>
<path d="M420 16 c0 -9 5 -16 10 -16 6 0 10 4 10 9 0 6 -4 13 -10 16 -5 3 -10
-1 -10 -9z"/>
<path d="M3740 20 c0 -13 27 -13 35 0 3 6 -3 10 -14 10 -12 0 -21 -4 -21 -10z"/>
<path d="M4562 23 c-29 -6 -19 -23 14 -23 15 0 24 6 24 15 0 8 -3 14 -7 14 -5
-1 -18 -4 -31 -6z"/>
<path d="M360 10 c0 -13 11 -13 30 0 12 8 11 10 -7 10 -13 0 -23 -4 -23 -10z"/>
</g>
</svg>
