<?xml version="1.0" standalone="no"?>
<!DOCTYPE svg PUBLIC "-//W3C//DTD SVG 20010904//EN"
 "http://www.w3.org/TR/2001/REC-SVG-20010904/DTD/svg10.dtd">
<svg version="1.0" xmlns="http://www.w3.org/2000/svg"
 width="505.000000pt" height="578.000000pt" viewBox="0 0 505.000000 578.000000"
 preserveAspectRatio="xMidYMid meet">

<g transform="translate(0.000000,578.000000) scale(0.100000,-0.100000)"
fill="#000000" stroke="none">
<path d="M2364 5723 c3 -3 -3 -17 -14 -30 -10 -13 -16 -31 -13 -40 4 -11 3
-14 -6 -9 -8 5 -12 3 -10 -5 5 -40 -16 -55 -28 -21 -8 21 -43 57 -43 43 0 -5
5 -13 10 -16 12 -8 13 -52 1 -59 -5 -3 -15 2 -22 11 -10 12 -10 14 -1 9 23
-14 12 12 -14 33 -22 18 -28 18 -40 6 -8 -7 -14 -21 -14 -30 0 -9 -5 -13 -11
-10 -7 5 -7 1 0 -14 32 -62 32 -61 15 -61 -9 0 -12 -5 -8 -12 4 -6 3 -8 -4 -4
-6 3 -9 21 -6 39 2 23 0 34 -9 34 -7 0 -14 -14 -15 -31 -2 -17 -8 -45 -14 -63
-11 -30 -12 -31 -25 -13 -8 12 -20 17 -30 13 -11 -4 -14 -3 -9 5 4 7 3 12 -3
12 -22 0 -20 -21 3 -32 37 -16 32 -29 -6 -16 -18 6 -46 12 -63 14 -28 3 -29 3
-5 -5 22 -8 19 -9 -20 -11 -25 -1 -39 -4 -32 -7 18 -7 15 -33 -5 -34 -10 0
-13 -3 -7 -5 6 -3 23 2 38 10 18 9 23 16 14 19 -9 4 -9 6 -1 6 22 2 25 -20 4
-26 -11 -3 -18 -9 -15 -14 2 -5 -8 -11 -23 -15 -43 -10 -83 -33 -83 -47 0 -8
3 -9 8 -1 9 13 45 27 37 15 -3 -5 1 -12 7 -15 9 -4 8 -5 -2 -4 -78 9 -205
-188 -225 -352 -3 -23 -8 -46 -11 -51 -11 -18 40 -432 54 -437 31 -10 45 -30
38 -55 -7 -30 -27 -35 -46 -12 -7 8 -21 15 -31 15 -15 0 -19 -8 -19 -40 0 -45
7 -49 39 -21 22 19 23 19 47 -2 27 -23 31 -37 11 -37 -10 0 -13 -12 -12 -37 2
-32 6 -38 26 -38 22 0 23 -4 25 -75 1 -41 4 -89 8 -107 4 -24 1 -35 -12 -43
-15 -10 -15 -11 4 -7 18 4 23 -4 38 -52 17 -56 78 -185 129 -271 14 -25 31
-70 38 -99 10 -50 10 -55 -9 -70 -11 -9 -24 -25 -30 -36 -10 -19 -32 -34 -87
-56 -98 -40 -294 -134 -400 -192 -162 -88 -334 -173 -445 -221 -114 -49 -147
-80 -155 -149 -7 -55 8 -164 24 -180 6 -6 23 -4 45 7 52 25 183 38 351 36 83
-1 224 -2 315 -4 91 -1 190 -7 220 -13 63 -14 263 -36 366 -41 16 -1 60 -20
97 -42 l67 -41 62 31 c34 17 67 35 73 39 5 5 57 11 115 15 58 3 122 10 143 15
61 14 771 25 847 12 36 -5 99 -11 140 -12 82 -2 143 -21 164 -50 12 -17 17
-13 61 54 129 193 149 232 140 276 -3 20 -7 42 -7 49 -1 12 -55 44 -229 135
-47 25 -95 50 -105 56 -46 26 -257 122 -344 156 -52 20 -121 48 -153 61 -32
13 -65 24 -73 24 -39 0 -91 26 -109 54 -19 29 -25 31 -85 33 -117 5 -128 9
-141 54 -9 29 -9 45 -1 62 53 110 102 222 117 270 10 31 24 57 30 57 17 0 65
96 65 130 0 15 9 59 21 96 38 123 20 247 -38 259 -1 1 4 23 12 50 8 26 15 63
15 80 0 18 7 38 15 45 9 7 32 47 51 89 35 75 36 78 29 165 -4 49 -9 96 -12
105 -4 14 -3 14 6 1 9 -13 11 -13 11 2 0 9 -5 29 -11 45 -7 15 -14 42 -16 58
-8 55 -10 70 -12 85 0 9 -11 16 -23 17 -23 2 -40 22 -31 37 3 5 11 2 18 -7 7
-10 16 -17 20 -17 5 0 -4 14 -20 30 -16 17 -33 30 -39 30 -5 0 -2 -6 8 -13 16
-12 17 -15 3 -20 -8 -3 -25 3 -38 14 -12 10 -19 19 -15 19 14 0 -35 76 -63 99
-17 13 -31 29 -31 37 0 7 -8 19 -19 26 -10 7 -19 18 -20 23 -2 6 -5 12 -8 15
-4 3 -2 -1 2 -9 6 -11 4 -13 -9 -8 -10 4 -20 7 -22 7 -2 0 -4 6 -4 13 0 20
-72 110 -79 99 -3 -5 -17 -12 -31 -16 -19 -6 -21 -5 -10 3 9 6 10 11 3 11 -6
0 -17 16 -23 35 -16 48 -27 52 -60 20 -27 -26 -30 -26 -45 -11 -9 9 -22 16
-28 16 -7 0 -4 -5 6 -11 24 -14 22 -32 -3 -19 -11 6 -20 17 -20 25 0 7 -10 16
-22 18 -13 2 -4 3 20 2 48 -2 57 10 13 20 -17 4 -44 0 -65 -9 -32 -13 -38 -13
-42 -1 -3 8 -3 20 1 27 8 16 -35 -31 -54 -60 -8 -11 -23 -23 -34 -26 -10 -2
-16 -2 -13 1 3 3 -1 11 -9 17 -12 9 -12 14 5 36 17 23 21 24 42 11 21 -13 22
-13 10 1 -7 9 -22 18 -33 21 -12 3 -18 3 -15 0z m332 -67 c3 -8 1 -23 -6 -33
-9 -15 -10 -13 -5 12 5 27 4 28 -8 13 -8 -10 -20 -18 -27 -18 -9 0 -7 6 6 19
23 24 33 25 40 7z m-156 -13 c0 -15 -2 -16 -10 -3 -8 12 -10 12 -10 1 0 -8 -3
-12 -6 -8 -8 7 4 27 17 27 5 0 9 -8 9 -17z m-322 -27 c2 -10 1 -29 -3 -43 -5
-23 -8 -24 -21 -12 -10 10 -12 25 -8 47 7 34 26 38 32 8z m362 0 c0 -9 -30
-14 -35 -6 -4 6 3 10 14 10 12 0 21 -2 21 -4z m-37 -41 c-7 -21 -12 -19 -10 4
0 11 5 18 9 15 4 -3 5 -11 1 -19z m251 -30 c3 -8 3 -15 0 -15 -3 0 -12 7 -20
15 -13 13 -13 15 -1 15 8 0 17 -7 21 -15z m26 0 c7 -9 8 -15 2 -15 -5 0 -12 7
-16 15 -3 8 -4 15 -2 15 2 0 9 -7 16 -15z m-785 -103 c-3 -3 -11 0 -18 7 -9
10 -8 11 6 5 10 -3 15 -9 12 -12z m615 -52 c-6 -11 -13 -20 -16 -20 -2 0 0 9
6 20 6 11 13 20 16 20 2 0 0 -9 -6 -20z m-695 -20 c-3 -5 -16 -10 -28 -9 -20
1 -20 2 3 9 14 4 26 8 28 9 2 1 0 -3 -3 -9z m1125 -120 c0 -5 -2 -10 -4 -10
-3 0 -8 5 -11 10 -3 6 -1 10 4 10 6 0 11 -4 11 -10z m45 -31 c11 -17 -1 -21
-15 -4 -8 9 -8 15 -2 15 6 0 14 -5 17 -11z m-889 -113 c19 -19 18 -21 -11 -24
-24 -2 -34 16 -18 31 9 10 13 9 29 -7z m-82 -11 c3 3 0 -2 -8 -11 -16 -18 -36
-11 -36 12 0 11 4 12 19 5 10 -6 21 -8 25 -6z m145 4 c10 15 35 5 25 -11 -3
-5 -20 -18 -38 -29 -17 -10 -26 -19 -20 -19 5 0 25 11 44 25 31 23 35 24 52 8
10 -9 18 -12 18 -7 1 5 7 -2 15 -16 17 -30 18 -26 5 20 -9 32 -8 33 5 16 8
-11 15 -33 15 -50 0 -28 1 -29 15 -10 8 10 14 24 15 29 0 6 -5 3 -10 -5 -8
-12 -10 -11 -10 8 l0 23 30 -23 c34 -25 37 -30 13 -22 -15 5 -15 3 2 -10 18
-15 20 -15 26 1 3 10 8 13 12 6 12 -18 -3 -42 -21 -35 -11 4 -10 -1 6 -18 12
-13 21 -29 18 -35 -2 -6 8 -11 23 -12 14 0 19 1 9 4 -14 3 -34 33 -26 37 2 1
13 10 26 21 20 16 22 16 16 2 -4 -12 -1 -17 11 -17 11 0 15 5 11 16 -3 8 -2
13 3 10 5 -3 9 -16 9 -29 0 -26 29 -67 48 -67 6 0 18 -8 25 -17 10 -11 10 -14
2 -9 -7 4 -13 5 -13 1 0 -3 10 -10 23 -15 30 -13 54 -29 107 -69 53 -41 72
-57 50 -46 -12 6 -12 5 -3 -5 6 -7 9 -19 6 -27 -3 -8 0 -19 8 -24 10 -6 7 -9
-11 -9 -15 0 -31 5 -38 12 -14 14 -83 18 -75 4 4 -5 -3 -6 -18 -1 -38 12 -143
6 -184 -11 -20 -8 -39 -24 -42 -35 -3 -10 -9 -19 -14 -19 -5 0 -4 12 2 27 10
28 10 28 -9 8 -10 -11 -17 -26 -14 -32 3 -9 -8 -13 -34 -13 -43 0 -86 18 -90
38 -1 7 0 8 3 2 9 -19 22 -10 18 12 -6 28 -22 38 -62 38 -17 0 -39 3 -49 7
-10 3 -15 2 -12 -3 4 -5 -25 -7 -69 -4 -72 5 -123 -5 -136 -27 -3 -5 25 -7 61
-5 37 1 87 -1 112 -6 39 -8 31 -10 -60 -10 -58 0 -140 -3 -184 -6 -72 -6 -77
-5 -62 9 9 9 16 22 16 28 0 7 9 23 20 37 11 14 20 35 20 48 0 13 4 20 10 17 6
-3 10 1 10 10 0 9 -4 13 -10 10 -5 -3 -10 1 -10 10 0 9 5 13 10 10 6 -4 10 5
10 20 0 18 4 24 13 19 8 -5 7 -2 -2 9 -13 16 -15 16 -26 1 -11 -16 -12 -16
-18 0 -4 9 -2 16 3 16 6 0 10 7 10 16 0 8 -4 12 -10 9 -5 -3 -10 1 -10 10 0 9
4 14 9 10 6 -3 14 3 20 12 10 17 10 17 11 -2 0 -16 2 -17 10 -5 5 9 5 19 -2
27 -15 18 -28 16 -29 -4 -1 -16 -2 -15 -6 1 -4 15 -7 16 -14 5 -7 -11 -9 -11
-9 3 0 9 5 20 10 23 6 4 8 11 5 16 -4 5 1 9 9 9 8 0 14 6 12 13 -1 6 -1 9 1 4
3 -4 9 -5 14 -2 5 4 7 -8 5 -25 -4 -33 11 -51 25 -29 7 11 9 11 9 -3 0 -9 4
-19 9 -22 5 -4 8 5 7 19 -2 14 1 22 6 18 6 -3 8 3 4 15 -4 12 -2 23 5 28 8 4
9 3 5 -4 -4 -7 -4 -17 0 -24 5 -8 10 -6 14 7 6 17 8 15 12 -8 5 -23 3 -27 -13
-22 -20 7 -28 -19 -9 -30 6 -3 10 -2 10 4 0 10 19 9 38 -2 6 -5 16 -5 22 -2 5
3 18 1 29 -5 17 -8 25 -5 46 17 14 15 25 35 25 44 0 21 26 43 39 34 6 -3 13 6
17 21 5 19 9 22 15 12 8 -11 10 -11 18 1z m81 -19 c0 -5 -2 -10 -4 -10 -3 0
-8 5 -11 10 -3 6 -1 10 4 10 6 0 11 -4 11 -10z m115 0 c3 -6 -1 -7 -9 -4 -18
7 -21 14 -7 14 6 0 13 -4 16 -10z m-295 -29 c0 -7 -10 -29 -21 -48 -20 -33
-22 -33 -39 -16 -18 19 -17 38 2 27 6 -4 9 -1 6 7 -3 8 -14 12 -24 11 -16 -3
-16 -1 5 17 26 23 71 25 71 2z m-99 -58 c13 -16 12 -17 -3 -4 -10 7 -18 15
-18 17 0 8 8 3 21 -13z m-248 -68 c-3 -9 -8 -14 -10 -11 -3 3 -2 9 2 15 9 16
15 13 8 -4z m987 -112 c0 -5 -4 -14 -9 -21 -6 -10 -10 -10 -21 3 -11 13 -10
14 5 9 13 -5 16 -4 11 4 -4 7 -2 12 3 12 6 0 11 -3 11 -7z m-316 -154 c-3 -5
-13 -9 -22 -8 -11 0 -12 2 -4 6 6 2 10 9 7 14 -4 5 1 6 9 3 9 -3 13 -10 10
-15z m-574 -3 c0 -2 -8 -10 -17 -17 -16 -13 -17 -12 -4 4 13 16 21 21 21 13z
m235 -6 c27 -7 27 -8 6 -9 -29 -1 -91 -22 -91 -31 0 -11 -74 -4 -97 8 -25 14
-45 16 -24 3 9 -6 10 -11 2 -15 -6 -4 -11 -2 -11 5 0 7 -8 5 -20 -6 -11 -10
-20 -13 -20 -7 0 42 164 75 255 52z m404 -13 c-28 -21 -59 -36 -59 -29 0 9 37
30 54 31 5 1 7 0 5 -2z m-788 -74 c-17 -14 -31 -32 -31 -39 0 -7 -4 -15 -9
-19 -18 -11 7 54 36 91 26 35 28 36 31 15 3 -16 -6 -31 -27 -48z m1209 24 c0
-18 -2 -19 -10 -7 -13 20 -13 43 0 35 6 -3 10 -16 10 -28z m-1131 -44 c17 -59
14 -67 -13 -46 -13 10 -22 26 -21 38 1 11 3 26 4 33 2 25 20 11 30 -25z m48 5
c-3 -7 -5 -2 -5 12 0 14 2 19 5 13 2 -7 2 -19 0 -25z m531 -44 c2 -15 10 -37
18 -48 8 -11 14 -27 14 -36 0 -13 -1 -13 -10 0 -8 12 -9 9 -8 -12 3 -34 38
-47 38 -15 1 19 3 18 17 -8 9 -16 16 -32 16 -35 0 -3 15 -15 33 -28 36 -24 39
-29 25 -51 -6 -9 -25 -12 -62 -10 -45 3 -62 -1 -101 -24 -56 -33 -56 -33 -86
-4 -19 18 -34 22 -78 20 -53 -2 -54 -2 -54 27 0 24 8 34 39 52 38 22 58 52 97
146 10 24 26 50 37 57 28 20 61 4 65 -31z m-587 -86 c22 -12 39 -27 39 -33 0
-6 11 -22 25 -35 14 -13 25 -34 25 -47 0 -14 5 -33 11 -44 9 -18 17 -19 64
-14 29 4 58 4 64 1 12 -8 -28 -76 -45 -76 -6 0 -21 -11 -34 -25 -12 -13 -27
-22 -31 -19 -11 6 -11 1 -3 -20 3 -9 11 -13 18 -9 6 3 6 1 -1 -8 -21 -22 -15
-34 7 -14 11 10 23 15 27 12 3 -4 15 0 25 10 28 25 21 5 -13 -38 -17 -21 -26
-39 -21 -39 6 0 12 6 15 13 2 6 8 9 12 5 10 -10 -14 -40 -26 -32 -5 3 -9 0 -9
-5 0 -6 5 -11 11 -11 5 0 8 -4 4 -9 -3 -6 6 -6 24 -1 23 6 29 5 24 -5 -3 -9 2
-13 16 -12 12 1 21 8 21 17 0 8 5 22 11 30 9 13 10 12 5 -3 -3 -10 -2 -16 3
-12 12 7 64 -13 57 -23 -2 -4 19 -9 47 -10 29 -2 66 -5 82 -8 17 -3 80 -7 140
-10 61 -4 114 -10 118 -14 5 -4 -7 -14 -25 -23 -18 -9 -43 -25 -55 -36 -17
-16 -37 -21 -85 -22 -35 -1 -53 -4 -40 -6 26 -5 29 -18 6 -27 -8 -3 -13 -2
-10 3 9 14 -48 10 -69 -5 -19 -14 -19 -15 -1 -49 16 -29 22 -33 37 -24 16 8
19 6 19 -10 0 -24 16 -36 24 -19 4 7 4 -2 1 -20 -3 -20 -1 -31 5 -27 6 3 10
17 10 30 0 13 5 27 10 30 6 4 8 10 6 14 -3 4 2 18 10 30 l15 21 20 -22 20 -23
-7 25 c-6 23 -6 24 11 10 14 -11 17 -11 11 -1 -7 10 -4 12 12 7 17 -6 23 -2
28 19 8 34 -2 44 -21 19 -8 -10 -15 -14 -15 -7 0 6 -9 9 -22 6 -13 -3 -5 4 17
16 21 12 45 21 52 21 15 0 54 60 47 71 -7 11 48 36 68 32 18 -4 33 -37 24 -51
-2 -4 4 -8 14 -8 14 0 16 3 8 13 -9 12 -5 17 13 15 3 -1 4 11 2 26 -3 19 -2
23 5 14 6 -9 8 3 4 36 -3 40 -1 50 13 56 24 9 34 0 28 -27 -4 -21 -4 -21 11
-3 8 10 13 24 9 30 -4 7 -2 7 6 0 10 -9 10 -17 2 -32 -6 -11 -11 -30 -11 -41
0 -11 -5 -23 -12 -27 -7 -5 -9 -2 -4 7 4 8 1 5 -8 -5 -8 -10 -13 -22 -11 -26
3 -4 -2 -13 -10 -20 -8 -7 -15 -23 -15 -36 0 -40 -30 -94 -72 -133 -10 -8 -18
-19 -18 -24 0 -13 -51 -57 -66 -57 -8 0 -11 -6 -8 -15 4 -10 0 -13 -15 -10
-12 2 -19 0 -16 -6 9 -14 -4 -29 -21 -22 -12 4 -12 8 -2 22 8 10 5 9 -10 -3
-23 -20 -82 -30 -82 -14 0 5 -4 6 -10 3 -5 -3 -10 -2 -10 4 0 6 -7 7 -17 4
-12 -5 -14 -3 -9 8 4 8 -2 3 -13 -11 -12 -14 -20 -18 -19 -10 3 16 -23 21 -34
6 -8 -12 -40 -18 -33 -6 3 4 -4 10 -15 13 -11 3 -23 1 -26 -4 -9 -14 -24 -10
-24 7 0 8 -4 12 -10 9 -12 -8 -88 52 -95 76 -6 19 -35 35 -31 16 1 -7 -2 -2
-8 11 -5 12 -14 22 -19 22 -4 0 -5 -5 -1 -12 5 -7 3 -8 -5 -3 -7 4 -21 28 -32
53 -16 36 -17 47 -7 54 10 6 10 8 -1 8 -8 0 -11 7 -8 20 3 11 1 18 -4 14 -5
-3 -9 0 -9 6 0 6 -5 8 -10 5 -6 -4 -9 -3 -8 2 4 16 -13 112 -21 117 -13 8 -20
-29 -9 -48 5 -9 6 -21 2 -27 -10 -17 -29 8 -30 41 0 16 2 28 4 25 3 -3 11 3
18 13 12 15 15 15 23 2 6 -8 13 -11 16 -8 4 4 0 17 -9 30 -9 12 -16 18 -17 13
0 -6 -6 2 -13 18 -11 25 -14 26 -32 12 -16 -12 -16 -14 -1 -9 22 8 22 1 -3
-21 -19 -17 -20 -17 -14 35 4 32 2 50 -4 46 -5 -3 -12 21 -15 55 -4 33 -11 68
-16 77 -9 19 -22 152 -14 152 3 0 23 -10 44 -22z m26 0 c-3 -8 -6 -5 -6 6 -1
11 2 17 5 13 3 -3 4 -12 1 -19z m1047 6 c3 -8 2 -12 -4 -9 -6 3 -10 10 -10 16
0 14 7 11 14 -7z m-1177 -16 c-3 -8 -6 -5 -6 6 -1 11 2 17 5 13 3 -3 4 -12 1
-19z m503 -32 c0 -2 -8 -10 -17 -17 -16 -13 -17 -12 -4 4 13 16 21 21 21 13z
m-73 -52 c-3 -3 -12 -4 -19 -1 -8 3 -5 6 6 6 11 1 17 -2 13 -5z m-200 -20 c-3
-3 -12 -4 -19 -1 -8 3 -5 6 6 6 11 1 17 -2 13 -5z m794 -44 c54 -15 67 -35 39
-60 -13 -11 -28 -20 -33 -20 -6 0 -18 -7 -28 -16 -10 -9 -28 -14 -46 -11 -27
4 -27 5 -5 12 27 9 30 29 3 20 -14 -4 -25 3 -42 26 -22 31 -22 32 -4 45 22 17
66 18 116 4z m-561 -45 c0 -8 0 -18 0 -22 0 -4 -6 -8 -15 -9 -8 -1 -15 2 -15
7 0 4 -7 6 -16 2 -11 -4 -12 -9 -5 -16 6 -6 11 -18 11 -26 0 -13 -2 -14 -9 -2
-5 7 -14 10 -20 7 -6 -4 -11 -2 -11 5 0 7 -7 4 -15 -7 -8 -10 -15 -14 -15 -7
0 12 86 83 101 83 5 0 9 -7 9 -15z m440 -47 c8 -13 6 -16 -8 -14 -11 2 -18 13
-20 32 -3 30 3 26 28 -18z m357 -10 c-3 -7 -5 -2 -5 12 0 14 2 19 5 13 2 -7 2
-19 0 -25z m-369 -43 c-3 -3 -9 2 -12 12 -6 14 -5 15 5 6 7 -7 10 -15 7 -18z
m-318 -7 c0 -16 -3 -19 -11 -11 -6 6 -8 16 -5 22 11 17 16 13 16 -11z m74 -7
c16 -17 15 -19 -4 -24 -11 -3 -23 -1 -26 5 -4 6 -10 5 -15 -3 -6 -10 -9 -7 -9
11 0 32 30 37 54 11z m-207 -13 c-3 -8 -6 -5 -6 6 -1 11 2 17 5 13 3 -3 4 -12
1 -19z m507 -4 c3 -8 2 -12 -4 -9 -6 3 -10 10 -10 16 0 14 7 11 14 -7z m-329
-44 c3 -5 18 -5 36 0 23 7 31 5 36 -5 4 -11 10 -12 24 -4 16 8 21 6 29 -13 5
-13 9 -18 9 -12 1 7 7 14 15 17 10 4 12 -2 7 -26 l-7 -31 -94 0 c-52 0 -121 3
-152 6 -62 5 -94 25 -73 45 9 8 15 9 24 0 8 -8 11 -6 11 7 0 11 5 16 13 13 8
-3 19 -2 25 1 17 11 91 12 97 2z m-320 -40 c-3 -5 -12 -10 -18 -10 -7 0 -6 4
3 10 19 12 23 12 15 0z m829 -5 c3 -8 1 -15 -4 -15 -6 0 -10 7 -10 15 0 8 2
15 4 15 2 0 6 -7 10 -15z m-574 -205 c0 -5 -5 -10 -11 -10 -5 0 -7 5 -4 10 3
6 8 10 11 10 2 0 4 -4 4 -10z m36 -22 c4 -6 3 -8 -4 -4 -5 3 -12 0 -15 -6 -2
-7 -8 -9 -13 -5 -5 4 -2 12 6 17 19 12 17 12 26 -2z m585 -240 c11 -21 11 -22
-4 -9 -10 7 -17 17 -17 22 0 15 9 10 21 -13z m-918 -48 c7 -14 19 -30 28 -37
8 -6 21 -30 29 -52 7 -23 21 -43 32 -47 10 -3 16 -10 12 -15 -9 -15 6 -49 22
-49 11 0 14 7 10 23 -5 19 -5 19 6 -3 7 -14 16 -27 20 -30 4 -3 11 -18 17 -33
6 -15 19 -30 28 -34 10 -3 26 -14 36 -25 17 -17 17 -18 0 -19 -16 -1 -16 -2
-1 -6 9 -2 16 -10 14 -16 -1 -7 -1 -9 1 -4 7 11 23 8 39 -8 9 -8 12 -15 7 -15
-4 0 6 -9 24 -20 17 -10 37 -28 42 -39 10 -17 19 -19 66 -16 41 3 55 1 55 -9
0 -8 8 -20 17 -27 14 -12 16 -12 11 2 -4 9 -1 16 8 16 7 0 10 -5 7 -10 -4 -6
1 -8 11 -4 10 4 22 7 27 7 6 0 7 5 3 12 -5 7 -3 8 5 4 7 -5 10 -14 8 -20 -3
-8 3 -12 16 -10 12 1 26 3 30 3 5 1 5 7 1 14 -4 6 -4 9 1 5 4 -4 15 -2 24 4 9
7 4 -1 -11 -18 -16 -17 -28 -39 -29 -50 0 -10 -3 -13 -6 -7 -3 9 -15 5 -41
-12 -20 -14 -40 -25 -44 -25 -14 0 -48 -34 -48 -47 0 -16 -58 -53 -81 -53 -9
0 -22 -7 -29 -15 -19 -23 -38 -18 -58 14 -10 16 -38 45 -62 66 -25 20 -58 47
-74 61 -15 13 -32 24 -38 24 -5 0 -14 12 -21 28 -14 30 -86 144 -97 152 -4 3
-15 20 -24 38 -56 108 -75 281 -36 315 11 9 21 25 21 34 1 15 2 14 6 -2 2 -11
9 -31 16 -45z m947 0 c6 -11 8 -20 6 -20 -3 0 -10 9 -16 20 -6 11 -8 20 -6 20
3 0 10 -9 16 -20z"/>
<path d="M2440 5014 c0 -8 5 -12 10 -9 6 4 8 11 5 16 -9 14 -15 11 -15 -7z"/>
<path d="M2567 4924 c-10 -13 -14 -24 -10 -24 9 0 36 40 31 45 -2 2 -11 -8
-21 -21z"/>
<path d="M2486 4357 c3 -10 9 -15 12 -12 3 3 0 11 -7 18 -10 9 -11 8 -5 -6z"/>
<path d="M2515 4359 c-10 -15 3 -25 16 -12 7 7 7 13 1 17 -6 3 -14 1 -17 -5z"/>
<path d="M1996 3997 c3 -10 9 -15 12 -12 3 3 0 11 -7 18 -10 9 -11 8 -5 -6z"/>
<path d="M2450 3640 c-13 -8 -12 -10 3 -10 9 0 17 5 17 10 0 12 -1 12 -20 0z"/>
<path d="M2030 3436 c0 -2 8 -10 18 -17 15 -13 16 -12 3 4 -13 16 -21 21 -21
13z"/>
<path d="M2616 5667 c3 -10 9 -15 12 -12 3 3 0 11 -7 18 -10 9 -11 8 -5 -6z"/>
<path d="M2131 5614 c0 -11 3 -14 6 -6 3 7 2 16 -1 19 -3 4 -6 -2 -5 -13z"/>
<path d="M2103 5521 c0 -11 5 -18 9 -15 4 3 5 11 1 19 -7 21 -12 19 -10 -4z"/>
<path d="M4185 2754 c-33 -24 -67 -44 -76 -44 -8 0 -52 -18 -98 -40 -45 -22
-89 -40 -97 -40 -17 0 -21 -20 -29 -135 -9 -138 -7 -133 -70 -123 -29 4 -73
16 -97 27 -83 35 -180 54 -293 55 -144 1 -599 -12 -839 -25 -104 -5 -228 -8
-275 -5 -47 3 -160 8 -251 11 -91 4 -172 8 -180 10 -27 7 -232 24 -370 31 -74
3 -139 9 -143 11 -5 3 -62 5 -128 4 -123 -1 -171 -12 -198 -45 -8 -9 -23 -21
-32 -27 -16 -8 -20 -3 -30 36 -8 33 -20 50 -43 64 -61 38 -130 136 -156 221
l-7 25 -7 -30 c-4 -16 -15 -48 -25 -70 -10 -22 -31 -79 -45 -127 -33 -104 -33
-104 69 -205 52 -51 86 -76 123 -89 48 -17 51 -21 64 -69 13 -47 15 -50 45
-48 26 2 42 -7 86 -47 l55 -50 -11 35 c-11 38 -5 54 15 37 8 -6 115 -12 280
-16 147 -3 307 -10 355 -15 315 -36 632 -42 998 -21 216 13 502 13 625 1 92
-9 264 -6 305 5 15 4 16 3 6 -4 -10 -7 -10 -11 -1 -17 6 -4 10 -21 9 -39 -1
-17 8 -62 20 -100 12 -38 19 -78 15 -89 -9 -28 -78 -55 -174 -66 -47 -6 -229
-10 -405 -11 -176 0 -376 -5 -445 -9 -152 -10 -615 -4 -725 10 -91 11 -297 25
-556 38 -107 5 -185 14 -200 21 -33 18 -49 36 -49 54 0 9 -5 16 -11 16 -5 0
-8 -3 -6 -8 3 -4 10 -26 16 -48 11 -42 11 -42 84 -58 39 -9 135 -19 212 -22
77 -3 212 -11 300 -19 456 -41 429 -41 1515 -16 356 8 386 13 442 71 33 36 44
17 19 -31 -26 -48 -63 -66 -197 -95 -270 -57 -1178 -89 -1524 -53 -52 5 -151
14 -220 19 -298 22 -460 40 -501 55 -24 9 -64 22 -88 28 -25 6 -49 20 -58 34
-15 22 -14 35 3 78 7 19 7 19 -13 3 -29 -26 -51 -22 -89 16 -31 31 -39 34
-123 40 -70 6 -104 14 -151 37 -33 16 -62 29 -65 29 -11 0 -95 65 -96 74 -1 6
-5 -14 -9 -44 -10 -68 -12 -352 -4 -375 9 -22 126 -75 193 -86 31 -5 93 -9
139 -9 46 0 92 -5 104 -11 25 -13 68 -4 68 16 0 8 9 19 19 25 16 8 26 4 53
-17 41 -34 48 -43 48 -65 0 -24 -17 -23 -25 1 -12 40 -65 36 -65 -5 0 -28 -37
-42 -68 -25 -13 7 -31 7 -58 -1 -24 -6 -79 -8 -147 -3 -97 6 -117 11 -190 45
-45 21 -83 37 -85 35 -3 -2 -6 -73 -8 -157 -3 -84 -6 -168 -8 -185 -4 -27 1
-36 23 -53 45 -32 79 -41 206 -57 162 -20 174 -20 225 4 49 24 115 41 92 25
-11 -7 -10 -10 3 -16 9 -3 21 -3 27 0 5 3 4 -3 -4 -15 -7 -12 -16 -21 -19 -21
-4 0 -26 -16 -50 -36 -38 -31 -48 -35 -79 -29 -19 3 -105 7 -190 8 -147 2
-159 4 -207 28 l-51 27 -10 -23 c-20 -43 -24 -91 -10 -102 19 -16 137 -63 183
-73 22 -5 65 -16 95 -25 96 -29 244 -65 275 -66 l30 -2 -28 -4 c-28 -4 -33
-27 -6 -29 39 -4 40 -7 4 -13 -25 -5 -53 -2 -74 6 -18 7 -48 13 -65 13 -17 0
-78 13 -136 29 -138 39 -156 45 -215 72 -60 28 -67 28 -70 9 -10 -63 -14 -80
-20 -89 -3 -6 2 -11 12 -11 11 -1 5 -6 -14 -15 -23 -10 -33 -21 -34 -37 -2
-39 2 -62 16 -81 8 -12 10 -29 5 -52 -5 -23 -3 -43 6 -61 8 -15 15 -62 16
-113 0 -47 3 -70 5 -51 16 131 223 147 435 33 55 -30 72 -44 73 -62 1 -12 -5
-25 -12 -28 -12 -5 -12 -7 -1 -14 10 -7 10 -11 1 -17 -6 -4 -13 -29 -14 -55
-2 -26 -6 -47 -11 -47 -4 0 -5 -7 -2 -15 4 -8 1 -22 -6 -30 -22 -27 -4 -45 44
-45 44 0 46 1 55 38 5 20 13 55 16 77 4 22 13 59 21 83 8 23 14 68 14 100 0
66 9 85 30 72 29 -19 40 -11 40 28 l0 37 28 -41 c15 -23 39 -59 53 -80 44 -65
202 -220 260 -255 30 -19 74 -39 99 -46 33 -9 246 -12 815 -12 l770 -1 40 25
c22 14 60 34 84 46 57 27 195 114 246 154 63 49 111 76 127 70 20 -8 40 19 47
63 5 29 15 43 45 62 21 13 33 26 27 28 -7 2 -22 -3 -35 -11 l-23 -16 -6 107
c-7 142 -24 222 -47 222 -9 0 -43 -24 -76 -53 -66 -59 -168 -123 -259 -162
-33 -14 -69 -30 -80 -35 -220 -103 -453 -135 -901 -125 -161 3 -333 12 -385
20 -245 37 -290 46 -374 76 -234 83 -365 192 -423 352 -10 30 -17 68 -14 85 5
37 22 43 22 10 0 -42 51 -132 99 -178 127 -120 380 -208 691 -240 58 -6 112
-13 120 -15 35 -10 700 -7 782 4 215 28 590 173 733 284 28 21 87 57 94 57 11
0 19 54 16 110 -3 48 -37 174 -62 228 -13 27 -13 38 -4 59 6 14 10 27 8 29 -1
2 -28 -17 -57 -42 -63 -52 -176 -112 -270 -142 -192 -62 -625 -115 -875 -107
-463 16 -581 25 -805 66 -203 38 -371 113 -444 199 -22 27 -26 41 -26 93 l1
62 14 -40 c8 -22 26 -49 39 -60 40 -32 165 -91 239 -114 168 -52 520 -89 912
-97 382 -8 617 13 885 78 76 19 231 89 270 123 8 7 42 27 76 44 51 26 66 30
88 22 17 -7 26 -18 26 -32 0 -12 13 -43 29 -68 21 -34 30 -62 34 -111 8 -105
31 -162 80 -193 l41 -27 201 1 c250 1 349 9 371 31 16 15 16 29 0 190 -9 95
-19 194 -22 220 l-6 47 -41 -19 c-65 -30 -303 -71 -409 -71 -173 0 -301 64
-259 130 7 11 12 11 32 -2 88 -56 363 -40 601 35 65 21 66 22 62 52 -2 17 -13
105 -24 196 -11 91 -23 181 -26 201 l-5 37 -47 -19 c-171 -66 -330 -108 -447
-118 -102 -8 -131 -2 -121 26 4 11 0 13 -14 8 -11 -4 -20 -2 -20 4 0 6 4 11 9
11 10 0 33 134 35 200 0 25 7 52 16 60 9 9 15 34 16 60 l0 45 105 36 c57 19
124 45 149 57 25 12 51 22 58 22 14 0 159 78 166 88 6 11 -58 202 -88 260 -24
47 -29 52 -44 41 -14 -11 -15 -11 -4 1 13 15 16 46 5 53 -5 3 -35 -15 -68 -39z
m-969 -502 c5 -4 11 -28 13 -54 3 -55 -16 -72 -89 -81 -25 -3 -39 -3 -32 0 10
4 10 9 -3 23 -11 12 -15 32 -13 61 3 40 6 45 33 50 43 9 78 10 91 1z m528
-247 c3 -8 1 -15 -4 -15 -6 0 -10 7 -10 15 0 8 2 15 4 15 2 0 6 -7 10 -15z
m101 -17 c-13 -68 -29 -117 -37 -112 -5 3 -6 -7 -3 -23 5 -22 4 -25 -5 -13 -9
12 -10 10 -6 -12 7 -30 -8 -39 -18 -12 -10 27 -7 57 14 113 11 30 17 57 15 59
-4 4 28 26 43 31 2 1 1 -14 -3 -31z m-5 -206 c0 -23 -25 -58 -33 -46 -3 5 -3
21 0 37 6 30 33 38 33 9z m-2572 -714 c-3 -7 -17 -14 -33 -15 -26 -2 -26 -1
-9 12 24 18 47 19 42 3z m-21 -305 c-3 -10 -5 -2 -5 17 0 19 2 27 5 18 2 -10
2 -26 0 -35z"/>
<path d="M3822 1960 c0 -14 2 -19 5 -12 2 6 2 18 0 25 -3 6 -5 1 -5 -13z"/>
<path d="M640 2123 c2 -37 75 -101 147 -128 26 -10 59 -26 72 -37 16 -12 41
-18 78 -18 49 0 53 2 44 19 -7 13 -26 20 -66 24 -38 4 -73 16 -114 41 -32 20
-62 36 -66 36 -4 0 -28 16 -51 36 -24 19 -44 32 -44 27z"/>
<path d="M999 2085 c10 -21 58 -75 66 -75 10 0 3 10 -36 52 -22 23 -36 34 -30
23z"/>
<path d="M4390 2079 c-200 -83 -346 -125 -445 -130 l-50 -3 2 64 c1 36 -1 54
-3 40 -3 -14 -12 -55 -20 -92 -9 -37 -14 -73 -11 -80 4 -9 6 -7 6 4 1 19 19
26 79 27 83 2 275 55 432 119 47 19 86 35 88 37 1 1 0 10 -4 19 -8 20 -17 19
-74 -5z"/>
<path d="M1021 1902 c12 -19 65 -32 130 -32 21 0 29 5 29 18 0 14 -7 18 -32
18 -18 0 -57 3 -86 7 -50 7 -52 7 -41 -11z"/>
<path d="M3926 846 c-3 -22 -8 -53 -12 -69 -5 -23 0 -34 35 -68 37 -37 40 -45
35 -79 -10 -64 13 -93 98 -120 40 -13 89 -27 108 -31 19 -4 60 -14 90 -23 66
-19 227 -46 274 -46 22 0 36 6 40 16 8 21 8 338 0 387 -6 32 -9 35 -22 25 -11
-10 -78 -13 -266 -13 -262 0 -319 8 -355 44 -18 18 -19 17 -25 -23z"/>
<path d="M3965 520 c-4 -6 -6 -47 -6 -91 0 -67 -4 -88 -26 -134 -26 -52 -26
-58 -15 -112 15 -70 33 -90 130 -139 l77 -39 191 -3 c162 -3 192 -1 197 12 10
26 56 230 59 261 3 29 2 30 -57 41 -33 6 -87 17 -120 23 -200 38 -363 102
-402 160 -12 18 -24 27 -28 21z"/>
<path d="M1230 280 c0 -36 -1 -113 -3 -173 l-2 -107 153 0 153 0 -48 41 c-26
23 -59 56 -73 72 -14 17 -51 60 -83 96 -32 35 -67 81 -77 100 l-19 36 -1 -65z"/>
<path d="M3757 226 c-4 -11 -13 -16 -23 -12 -11 4 -37 -9 -73 -36 -30 -24
-102 -73 -160 -111 l-105 -67 190 0 189 0 -3 82 c-4 147 -6 165 -15 144z"/>
<path d="M3895 30 c-8 -25 -3 -33 17 -28 11 2 12 8 2 27 l-12 23 -7 -22z"/>
</g>
</svg>
