<?xml version="1.0" standalone="no"?>
<!DOCTYPE svg PUBLIC "-//W3C//DTD SVG 20010904//EN"
 "http://www.w3.org/TR/2001/REC-SVG-20010904/DTD/svg10.dtd">
<svg version="1.0" xmlns="http://www.w3.org/2000/svg"
 width="1920.000000pt" height="1009.000000pt" viewBox="0 0 1920.000000 1009.000000"
 preserveAspectRatio="xMidYMid meet">

<g transform="translate(0.000000,1009.000000) scale(0.100000,-0.100000)"
fill="#000000" stroke="none">
<path d="M1662 10008 c-93 -247 -294 -464 -542 -588 -25 -12 -46 -24 -48 -25
-2 -2 9 -27 23 -55 39 -77 58 -180 50 -270 -20 -243 -132 -473 -260 -535 -47
-22 -141 -26 -196 -7 l-36 13 9 52 c6 29 8 115 5 192 -6 173 -35 296 -104 434
l-48 96 -60 13 c-33 8 -89 22 -125 32 -35 11 -65 18 -66 17 -1 -1 -61 -91
-133 -201 l-131 -198 0 -2909 0 -2909 393 0 c1948 -1 4258 -290 6597 -826 863
-198 1957 -493 2575 -694 l182 -60 229 0 c126 -1 344 -5 484 -10 140 -5 350
-12 466 -16 l210 -7 21 27 c41 51 133 72 238 54 69 -12 128 -35 209 -82 52
-30 91 -43 162 -56 l94 -16 6 49 c6 46 8 48 33 42 14 -4 30 -7 36 -8 5 -1 11
12 13 28 6 61 13 61 43 -4 43 -93 104 -171 134 -171 14 0 55 -4 92 -10 38 -5
138 -17 223 -25 85 -9 180 -22 210 -30 84 -23 215 -44 315 -51 50 -3 118 -12
153 -20 35 -8 79 -14 97 -14 19 0 116 -13 217 -30 100 -16 205 -30 232 -30 28
0 78 -5 111 -10 70 -12 345 -45 495 -60 58 -6 140 -20 182 -30 141 -36 158
-31 376 105 71 44 96 55 102 45 4 -7 15 -10 25 -7 53 21 87 240 66 431 -16
137 -23 142 -102 75 -159 -133 -506 -266 -804 -309 -204 -29 -773 7 -1135 71
-98 17 -283 63 -397 98 -18 5 -33 7 -33 3 0 -4 -4 -2 -8 3 -4 6 -43 27 -87 49
-119 57 -211 120 -279 191 -74 76 -74 76 -108 145 -33 66 -51 151 -42 203 8
52 21 46 26 -12 15 -155 172 -306 433 -419 149 -64 432 -133 685 -167 331 -45
780 -66 946 -46 222 28 487 107 689 207 233 115 231 114 245 162 18 62 7 179
-29 297 -30 99 -30 100 -11 132 10 17 16 34 13 36 -2 3 -37 -18 -77 -47 -79
-57 -210 -117 -303 -141 -94 -23 -331 -54 -505 -67 -125 -8 -212 -8 -373 1
-375 22 -639 53 -865 100 -25 6 -72 15 -105 21 -294 54 -503 141 -629 260 -81
77 -88 96 -77 200 l7 55 7 -51 c8 -55 22 -72 112 -136 128 -91 295 -149 595
-207 242 -47 388 -69 620 -91 470 -46 800 -43 1128 10 105 17 126 25 290 104
97 48 187 86 200 86 40 0 62 -18 62 -50 0 -16 12 -55 27 -87 20 -46 26 -72 25
-123 -3 -140 34 -227 112 -260 61 -27 234 -43 472 -44 172 -1 214 2 229 14 16
14 17 32 10 275 -3 143 -8 261 -9 263 -2 1 -19 -5 -39 -13 -56 -23 -421 -59
-510 -49 -125 13 -232 51 -276 98 -19 20 -22 31 -17 61 l7 36 32 -20 c38 -23
107 -47 162 -56 63 -10 271 -7 354 5 165 24 208 32 245 43 l39 11 -7 161 c-9
229 -18 389 -21 394 -2 1 -25 -4 -52 -13 -40 -13 -138 -40 -228 -63 -79 -20
-197 -35 -295 -36 -134 -2 -175 6 -165 31 8 19 13 41 14 60 1 8 24 12 81 12
113 0 251 23 420 71 80 22 162 45 183 51 28 8 37 16 37 33 0 33 -8 35 -64 15
-90 -34 -308 -91 -406 -105 -102 -16 -220 -20 -220 -7 0 8 27 157 35 190 3 13
2 21 -3 18 -5 -3 -12 -28 -16 -56 -4 -27 -20 -93 -36 -147 -15 -53 -27 -100
-24 -104 3 -6 -19 -19 -32 -19 -9 0 -3 22 10 36 8 8 12 23 9 35 -4 14 -2 20 4
16 14 -9 22 13 19 47 -2 15 1 23 7 19 6 -4 8 2 5 15 -4 12 -2 22 2 22 5 0 9
12 9 28 2 75 7 98 26 112 20 15 22 22 32 92 6 42 0 40 138 67 120 24 417 129
445 157 11 11 -18 134 -67 277 -33 95 -39 106 -58 102 -18 -5 -18 -5 -2 5 19
12 21 28 7 50 -8 12 -13 12 -37 -6 -55 -40 -110 -65 -253 -114 -159 -54 -170
-62 -170 -136 0 -40 -27 -201 -36 -215 -5 -9 -138 32 -191 59 -147 76 -271 95
-683 107 -102 3 -228 8 -280 11 -52 2 -203 9 -335 14 -132 6 -280 15 -330 20
-49 6 -139 15 -200 21 -140 12 -138 12 -400 55 -121 19 -230 37 -241 39 -12 2
-75 10 -140 19 -66 9 -141 20 -169 25 -45 9 -76 12 -227 26 -55 5 -114 -13
-164 -51 -39 -30 -46 -27 -62 31 -8 28 -31 59 -75 103 -51 49 -71 78 -97 140
-51 121 -50 134 9 222 90 136 99 139 80 37 -9 -49 -9 -82 -1 -132 6 -37 13
-69 15 -71 2 -3 17 0 33 6 16 6 50 15 76 20 74 15 394 11 446 -4 20 -6 170
-22 337 -36 148 -13 169 -15 182 -23 16 -10 302 -65 403 -78 52 -7 97 -15 100
-19 3 -4 30 -22 60 -42 30 -19 61 -42 68 -50 11 -14 22 -11 100 22 87 37 88
37 277 46 228 10 199 10 570 -10 372 -21 474 -30 595 -55 52 -10 122 -22 155
-26 77 -10 130 -31 155 -63 11 -14 22 -23 24 -21 26 28 199 266 220 303 25 43
28 56 23 103 -7 63 1 55 -162 160 -327 210 -707 415 -895 483 -71 25 -107 55
-122 101 -2 6 -50 14 -108 19 -116 9 -124 14 -135 81 -5 31 -2 46 17 76 12 21
31 55 40 75 9 21 21 38 26 38 5 0 24 33 41 73 73 161 81 177 95 177 20 0 64
69 75 120 6 25 27 92 47 149 34 98 36 110 29 180 -7 76 -23 111 -52 111 -11 0
-11 5 -3 20 14 26 50 141 50 160 0 9 5 21 12 28 8 8 20 -4 48 -51 40 -70 140
-205 256 -347 248 -304 598 -809 836 -1205 662 -1101 1181 -2362 1654 -4020
52 -181 98 -336 102 -344 4 -8 89 -35 192 -63 457 -120 1077 -300 1423 -411
l137 -45 0 5044 0 5044 -8753 0 -8754 0 -31 -82z m12322 -2324 c3 -8 2 -12 -4
-9 -6 3 -10 10 -10 16 0 14 7 11 14 -7z m-619 -40 c39 -8 76 -16 84 -17 19 -5
48 -47 32 -47 -6 0 -14 -19 -18 -42 -6 -42 -7 -42 -16 -15 -5 16 -16 27 -26
27 -25 0 -32 10 -22 29 7 13 4 16 -14 16 -17 0 -21 -3 -14 -12 7 -7 6 -14 -1
-18 -5 -3 -10 -11 -10 -16 0 -6 5 -7 10 -4 6 3 10 -1 10 -11 0 -15 -2 -15 -25
0 -31 20 -51 20 -120 -1 -36 -11 -54 -22 -51 -30 3 -7 -5 -19 -16 -27 -28 -20
-18 -29 16 -16 33 12 66 13 66 2 0 -5 -24 -14 -53 -21 -36 -8 -63 -21 -82 -41
-16 -17 -25 -30 -20 -30 5 0 -6 -16 -25 -35 -36 -37 -50 -43 -50 -21 0 7 -6
19 -14 26 -12 9 -16 5 -21 -24 -4 -19 -5 -41 -2 -48 3 -7 6 3 8 22 l2 35 6
-35 c6 -28 2 -42 -19 -70 -34 -45 -86 -177 -102 -260 -11 -52 -11 -111 -2
-295 7 -126 12 -231 13 -233 0 -2 15 -16 32 -32 30 -27 31 -30 19 -60 l-13
-30 -33 25 c-51 39 -64 34 -64 -25 0 -53 7 -56 53 -24 15 10 22 8 44 -14 l26
-26 -21 -14 c-16 -11 -19 -18 -12 -31 5 -9 5 -23 0 -31 -15 -24 -1 -40 27 -29
35 13 35 13 28 -28 -3 -21 -9 -71 -12 -112 -5 -59 -3 -72 7 -66 10 6 12 4 7
-9 -4 -10 -7 -26 -7 -36 0 -11 -11 -20 -32 -26 l-33 -8 36 -3 c34 -4 38 -7 44
-41 10 -56 40 -150 68 -212 122 -270 128 -295 80 -306 -16 -3 -44 -10 -63 -15
-56 -14 -92 -11 -217 21 -137 35 -320 121 -423 199 -89 67 -225 211 -281 296
-138 210 -202 422 -202 670 0 247 63 457 201 670 58 89 236 267 327 327 271
177 590 242 890 182z m668 -2 c-5 -10 -8 -11 -13 -2 -4 7 -12 10 -18 6 -6 -3
-14 -2 -17 4 -4 6 5 10 23 8 21 -1 28 -6 25 -16z m-498 -40 c-8 -8 -25 10 -19
20 4 6 9 5 15 -3 4 -7 6 -15 4 -17z m55 18 c0 -5 -5 -10 -11 -10 -5 0 -7 5 -4
10 3 6 8 10 11 10 2 0 4 -4 4 -10z m60 -4 c0 -3 -4 -8 -10 -11 -5 -3 -10 -1
-10 4 0 6 5 11 10 11 6 0 10 -2 10 -4z m-122 -51 c-3 -3 -9 2 -12 12 -6 14 -5
15 5 6 7 -7 10 -15 7 -18z m746 -24 c-2 -2 -10 4 -18 12 -12 11 -13 16 -3 20
11 4 29 -23 21 -32z m-437 -3 c-3 -8 -6 -5 -6 6 -1 11 2 17 5 13 3 -3 4 -12 1
-19z m-484 -20 c36 -19 10 -17 -39 2 -41 17 -44 19 -14 14 19 -3 43 -11 53
-16z m57 7 c11 -13 10 -14 -4 -9 -9 3 -16 10 -16 15 0 13 6 11 20 -6z m920 -5
c0 -5 -5 -10 -11 -10 -5 0 -7 5 -4 10 3 6 8 10 11 10 2 0 4 -4 4 -10z m-1113
-16 c-3 -3 -12 -4 -19 -1 -8 3 -5 6 6 6 11 1 17 -2 13 -5z m86 -16 c-6 -11
-61 -10 -67 0 -2 4 13 8 34 7 21 0 36 -3 33 -7z m137 -32 c0 -3 -4 -8 -10 -11
-5 -3 -10 -1 -10 4 0 6 5 11 10 11 6 0 10 -2 10 -4z m-191 -42 c2 -2 -5 -4
-17 -4 -11 0 -24 -5 -27 -10 -4 -6 -16 -8 -27 -4 -12 3 -18 2 -15 -3 4 -5 1
-10 -6 -10 -7 0 -20 -4 -31 -8 -13 -6 -17 -4 -15 4 3 7 7 11 9 9 3 -2 19 7 35
19 22 15 38 20 60 16 17 -3 32 -7 34 -9z m844 3 c3 -8 -1 -14 -8 -14 -7 0 -11
6 -8 14 3 7 6 13 8 13 2 0 5 -6 8 -13z m-10 -42 c-3 -9 -8 -14 -10 -11 -3 3
-2 9 2 15 9 16 15 13 8 -4z m13 -23 c-18 -16 -18 -16 -6 6 6 13 14 21 18 18 3
-4 -2 -14 -12 -24z m409 -71 c3 -5 0 -13 -6 -17 -7 -4 -9 -3 -5 4 3 5 0 13 -6
15 -9 4 -10 6 -1 6 6 1 14 -3 18 -8z m-1059 -167 c-5 -14 15 -46 26 -41 2 1
-8 -8 -22 -20 -14 -13 -29 -23 -35 -23 -5 0 4 9 20 20 31 21 28 27 -5 10 -21
-11 -20 -1 3 48 12 25 22 30 13 6z m125 -27 c30 -15 40 -54 12 -42 -10 4 -26
7 -35 7 -19 -1 -22 7 -12 32 7 19 6 19 35 3z m55 -23 c-4 -9 -9 -15 -11 -12
-3 3 -3 13 1 22 4 9 9 15 11 12 3 -3 3 -13 -1 -22z m54 -12 c0 -15 4 -22 8
-17 13 19 46 11 58 -13 6 -13 17 -29 24 -35 10 -9 11 -9 4 3 -11 20 -13 50 -2
50 7 0 12 -33 9 -70 0 -8 12 -24 27 -35 19 -13 23 -14 14 -3 -10 13 -10 17 0
21 7 2 9 8 5 13 -4 5 -12 2 -17 -6 -7 -11 -10 0 -10 33 0 44 1 47 16 33 8 -9
24 -21 35 -26 24 -13 25 -32 2 -23 -16 6 -16 5 -4 -10 14 -17 32 -23 30 -9 -3
18 2 22 15 10 10 -9 11 -17 3 -26 -7 -9 -7 -16 1 -24 9 -9 12 -8 12 4 0 9 4
19 9 22 5 4 7 -4 3 -16 -3 -14 -2 -19 6 -14 7 4 12 14 12 22 0 8 5 12 10 9 6
-4 8 -15 5 -26 -4 -13 -2 -19 9 -19 9 0 22 -13 30 -28 8 -16 31 -42 51 -57 25
-21 32 -31 23 -37 -7 -4 -10 -8 -5 -8 4 0 9 1 11 3 2 1 14 -7 25 -17 12 -11
28 -21 36 -22 7 -1 30 -20 50 -43 21 -23 42 -41 49 -41 6 0 2 7 -8 15 -11 8
-15 15 -10 15 20 0 33 -23 24 -41 -7 -12 -6 -20 2 -25 7 -4 8 -3 4 4 -4 7 -3
12 2 12 17 0 20 -12 10 -42 -9 -26 -8 -33 7 -45 18 -12 17 -13 -7 -13 -14 0
-31 7 -38 16 -20 23 -49 36 -63 27 -18 -11 -49 -11 -77 0 -27 10 -162 11 -195
1 -11 -4 -23 -12 -27 -18 -7 -11 -11 -12 -61 -14 -24 -2 -27 -5 -22 -22 6 -18
2 -20 -33 -20 -42 0 -100 24 -83 34 6 4 6 17 1 35 -4 16 -5 33 -2 38 4 4 3 5
-2 1 -5 -4 -15 -3 -23 4 -8 6 -38 12 -67 13 -30 1 -58 5 -63 8 -6 4 -49 7 -96
8 -74 1 -91 -2 -119 -21 -18 -12 -25 -19 -16 -16 21 6 182 -11 224 -24 20 -6
2 -7 -56 -3 -111 8 -178 9 -215 2 -16 -3 -24 -4 -17 -2 25 9 11 22 -18 18 -16
-3 -43 -7 -60 -10 -31 -5 -42 11 -15 21 8 4 15 11 15 18 0 6 12 24 26 41 14
16 33 45 42 65 9 19 21 38 26 42 6 4 1 8 -11 8 -16 0 -21 4 -16 16 4 11 8 12
13 4 5 -8 10 -2 14 15 4 14 4 30 1 35 -4 6 2 7 12 3 16 -6 16 -5 4 11 -14 17
-16 16 -34 -6 -13 -16 -17 -18 -13 -5 3 9 1 17 -5 17 -6 0 -3 7 5 16 20 19 21
28 3 21 -8 -3 -14 1 -14 9 0 8 6 13 12 10 12 -4 50 83 40 92 -3 3 -10 -10 -17
-28 -10 -30 -12 -32 -19 -14 -7 16 -8 17 -8 2 -1 -10 -5 -18 -11 -18 -10 0 -3
27 12 47 6 7 7 17 4 22 -4 6 2 8 14 6 14 -3 25 5 36 23 15 27 15 27 9 2 -12
-50 -11 -79 3 -85 10 -4 12 0 8 10 -3 9 -2 13 4 10 6 -3 10 -12 10 -18 0 -7 5
-19 10 -27 9 -13 11 -13 21 0 8 11 12 12 16 3 2 -7 9 -13 14 -13 6 0 7 4 4 10
-3 5 0 7 8 4 8 -3 17 2 21 12 6 15 9 14 34 -8 42 -39 59 -41 88 -10 14 15 32
39 40 55 13 24 26 29 69 27 3 0 17 13 31 30 29 34 44 31 44 -8z m-176 -13 c-3
-5 2 -6 10 -3 19 7 21 -9 5 -37 -27 -52 -69 -78 -69 -44 0 8 -7 15 -16 15 -8
0 -12 5 -9 10 4 6 16 8 27 4 15 -4 19 -2 16 7 -3 8 -15 13 -27 12 -20 -3 -19
0 10 26 28 26 68 33 53 10z m-163 -6 c13 -16 12 -17 -3 -4 -10 7 -18 15 -18
17 0 8 8 3 21 -13z m534 -3 c3 -6 -1 -7 -9 -4 -18 7 -21 14 -7 14 6 0 13 -4
16 -10z m-513 -40 c5 0 6 -5 3 -11 -7 -11 -55 27 -55 43 0 5 10 0 22 -12 12
-11 26 -20 30 -20z m-42 -13 c0 -7 -4 -6 -10 3 -8 13 -10 12 -10 -4 0 -11 -3
-17 -6 -13 -4 3 -4 13 0 22 6 18 26 11 26 -8z m671 -54 c13 -16 12 -17 -3 -4
-10 7 -18 15 -18 17 0 8 8 3 21 -13z m-889 -25 c-7 -7 -12 -8 -12 -2 0 14 12
26 19 19 2 -3 -1 -11 -7 -17z m1156 -223 c-3 -3 -9 2 -12 12 -6 14 -5 15 5 6
7 -7 10 -15 7 -18z m-773 -55 c3 -5 1 -10 -4 -10 -6 0 -11 5 -11 10 0 6 2 10
4 10 3 0 8 -4 11 -10z m160 -49 c3 -5 2 -12 -3 -15 -5 -3 -9 1 -9 9 0 17 3 19
12 6z m-611 -68 c-10 -7 -14 -13 -8 -13 5 -1 -4 -8 -19 -16 -16 -9 -35 -30
-42 -47 -11 -23 -14 -27 -15 -12 0 24 32 79 69 118 26 28 26 28 29 6 2 -14 -3
-28 -14 -36z m441 42 c46 -14 47 -15 11 -10 -46 5 -98 -4 -90 -16 6 -10 -16
-12 -86 -9 -25 1 -47 5 -50 10 -3 4 -20 7 -38 6 -36 -2 -62 -26 -62 -57 0 -10
-4 -20 -9 -24 -12 -7 2 44 20 73 8 13 28 27 44 31 49 15 205 12 260 -4z m380
-15 c3 5 14 10 23 10 30 -1 -30 -29 -62 -30 -28 0 -29 1 -10 14 12 10 23 11
31 5 7 -7 13 -6 18 1z m142 -26 c-3 -3 -12 -4 -19 -1 -8 3 -5 6 6 6 11 1 17
-2 13 -5z m-40 -10 c-3 -3 -12 -4 -19 -1 -8 3 -5 6 6 6 11 1 17 -2 13 -5z
m-858 -35 c6 -18 11 -47 11 -65 l0 -32 -29 29 c-28 28 -30 39 -15 87 6 22 22
13 33 -19z m741 -4 c-6 -15 -13 -25 -16 -23 -2 3 1 17 7 32 16 34 23 27 9 -9z
m79 31 c-2 -2 -15 -9 -29 -15 -24 -11 -24 -11 -6 3 16 13 49 24 35 12z m518
-98 c-2 -13 -4 -5 -4 17 -1 22 1 32 4 23 2 -10 2 -28 0 -40z m-664 -3 c10 -7
18 -24 17 -37 -3 -36 -1 -50 8 -44 5 3 8 -10 8 -29 -1 -18 -4 -31 -8 -28 -5 2
-7 -7 -6 -21 2 -23 14 -31 35 -23 4 1 6 11 4 22 -4 24 -1 22 29 -30 23 -39 23
-40 2 -21 -12 11 -22 17 -22 13 0 -3 -3 -13 -7 -23 -5 -13 -3 -16 9 -12 34 14
105 -52 92 -85 -5 -15 -74 -29 -74 -16 0 4 -14 9 -32 11 -21 4 -52 -4 -96 -24
-64 -29 -65 -29 -86 -10 -36 33 -65 44 -112 41 -85 -6 -84 41 3 99 49 32 63
49 103 125 25 49 53 92 60 98 21 13 52 11 73 -6z m-813 -87 c-1 -28 -2 -30
-11 -15 -6 10 -8 25 -5 33 9 24 16 16 16 -18z m115 1 l35 -31 -5 34 c-3 22 0
17 9 -15 18 -61 39 -93 77 -116 16 -10 26 -21 22 -24 -3 -4 -15 0 -25 10 -17
15 -18 15 -18 -14 0 -45 25 -60 98 -61 35 0 68 -4 72 -8 12 -12 -56 -85 -72
-79 -7 3 -22 -8 -33 -25 -14 -20 -26 -28 -37 -24 -19 6 -22 -3 -12 -31 5 -13
8 -14 15 -3 7 10 9 9 9 -4 0 -10 -4 -18 -10 -18 -5 0 -10 -8 -10 -17 1 -15 4
-14 20 5 15 18 23 21 36 14 13 -7 22 -4 36 12 18 21 18 21 7 -6 -7 -16 -19
-28 -26 -28 -8 0 -12 -4 -8 -9 3 -6 -4 -15 -16 -21 -11 -7 -18 -14 -16 -17 3
-2 18 4 33 14 l28 18 -17 -25 c-22 -32 -22 -46 1 -29 15 11 15 11 -1 -7 -18
-19 -18 -19 -33 0 -8 11 -14 14 -14 8 0 -7 -7 -12 -15 -12 -8 0 -15 -5 -15
-11 0 -6 9 -9 20 -6 11 3 22 2 25 -2 2 -4 18 -7 35 -6 21 1 28 -1 20 -9 -17
-17 -11 -27 9 -17 10 6 21 7 25 4 3 -3 6 1 6 10 0 10 8 17 18 17 13 0 14 2 3
9 -8 5 -9 11 -3 15 5 3 15 -1 22 -9 7 -8 18 -15 25 -15 7 0 23 -9 37 -19 13
-11 44 -22 69 -24 24 -3 69 -12 99 -21 59 -17 182 -31 268 -30 28 0 52 -3 52
-8 0 -5 4 -7 10 -3 5 3 7 12 3 20 -3 10 1 15 12 15 9 0 13 -5 9 -11 -4 -7 0
-9 14 -5 25 8 38 -10 21 -30 -10 -12 -9 -13 5 -8 10 4 16 1 16 -9 0 -8 7 -18
16 -21 14 -5 15 -4 4 9 -10 13 -10 19 3 33 14 15 20 39 31 116 2 11 8 22 14
24 7 2 12 11 12 20 0 13 4 11 16 -6 9 -13 13 -31 9 -42 -4 -11 -2 -20 3 -20 6
0 13 11 16 25 6 22 26 36 26 18 0 -17 -25 -73 -33 -73 -4 0 -6 -4 -3 -9 3 -5
-2 -15 -11 -22 -14 -12 -16 -12 -9 1 4 8 0 6 -8 -4 -9 -11 -16 -28 -16 -38 0
-21 -10 -23 -30 -5 -12 10 -12 9 -1 -5 10 -14 11 -21 2 -32 -6 -8 -11 -18 -9
-22 4 -18 -14 -54 -24 -48 -6 4 -8 2 -5 -4 10 -15 -23 -68 -55 -87 -15 -9 -28
-23 -28 -31 0 -8 -7 -14 -16 -14 -10 0 -14 -5 -10 -16 3 -8 2 -13 -3 -10 -5 3
-14 -1 -21 -9 -7 -8 -19 -15 -27 -15 -10 0 -14 -7 -11 -18 3 -11 0 -19 -7 -19
-7 0 -11 6 -8 13 3 8 -2 11 -16 7 -13 -3 -18 -10 -14 -21 4 -10 2 -13 -5 -8
-7 4 -12 3 -12 -1 0 -5 -9 -9 -21 -9 -21 0 -21 0 1 18 12 10 18 18 13 18 -5 0
-19 -9 -30 -20 -15 -14 -23 -16 -27 -7 -3 8 -10 6 -20 -7 -15 -19 -16 -19 -16
-1 0 18 -1 18 -20 0 -18 -17 -20 -17 -14 -2 3 10 1 17 -6 17 -6 0 -8 5 -4 11
4 8 -1 9 -16 4 -15 -5 -20 -4 -16 4 4 6 2 11 -3 11 -6 0 -11 -4 -11 -9 0 -5
-7 -12 -16 -15 -8 -3 -13 -2 -10 3 3 5 -3 11 -14 14 -11 3 -20 1 -20 -5 0 -5
-4 -6 -10 -3 -5 3 -10 1 -10 -4 0 -6 -7 -11 -16 -11 -8 0 -12 5 -9 10 3 6 -2
11 -12 11 -24 2 -25 2 -45 -6 -14 -6 -18 -2 -18 14 0 19 -2 20 -22 10 -22 -12
-22 -11 -8 6 13 17 13 18 -1 13 -9 -4 -20 2 -28 13 -6 11 -16 17 -22 14 -5 -4
-8 -3 -7 2 4 12 -53 93 -66 93 -6 0 -5 -4 3 -9 8 -5 9 -11 3 -15 -10 -6 -28
30 -24 46 1 4 -4 5 -11 3 -20 -8 -37 9 -41 41 -3 16 -8 37 -12 48 -4 11 -2 21
7 27 12 7 12 9 0 9 -8 0 -11 7 -8 20 3 11 1 20 -5 20 -6 0 -7 7 -4 16 6 15 4
15 -11 3 -11 -9 -14 -10 -9 -2 4 7 3 21 -3 30 -6 11 -6 24 0 35 7 14 6 20 -6
25 -12 4 -13 8 -5 13 8 5 9 16 5 31 -7 22 -8 22 -21 4 -8 -10 -14 -28 -14 -39
0 -12 -5 -28 -11 -36 -8 -11 -9 -4 -7 27 2 24 -1 45 -7 47 -5 2 -2 5 7 5 9 1
24 8 32 17 15 14 17 14 22 0 3 -9 10 -16 15 -16 6 0 6 8 0 19 -6 10 -7 22 -3
26 4 5 -1 5 -10 2 -12 -4 -18 -1 -18 8 0 8 -4 15 -10 15 -5 0 -7 6 -4 14 6 16
-11 16 -42 -1 -20 -11 -20 -11 -10 22 6 18 14 31 18 29 4 -3 5 2 2 10 -3 9
-11 14 -17 13 -8 -1 -12 13 -12 38 0 22 -4 43 -10 47 -6 4 -2 13 10 23 13 9
14 13 4 10 -9 -3 -16 0 -17 7 -11 97 -13 208 -4 208 6 0 27 -14 47 -31z m-97
-64 c-3 -3 -9 2 -12 12 -6 14 -5 15 5 6 7 -7 10 -15 7 -18z m1369 -7 c-3 -8
-6 -5 -6 6 -1 11 2 17 5 13 3 -3 4 -12 1 -19z m-4 -38 c3 -11 1 -18 -4 -14 -5
3 -9 12 -9 20 0 20 7 17 13 -6z m-1050 -27 c-7 -2 -19 -2 -25 0 -7 3 -2 5 12
5 14 0 19 -2 13 -5z m162 -3 c-3 -5 -12 -7 -20 -3 -21 7 -19 13 6 13 11 0 18
-4 14 -10z m-52 -7 c-7 -2 -21 -2 -30 0 -10 3 -4 5 12 5 17 0 24 -2 18 -5z
m82 -123 c7 -22 -2 -43 -15 -35 -5 3 -16 -8 -25 -25 -15 -28 -16 -29 -34 -12
-10 9 -16 20 -14 25 2 4 0 7 -5 7 -5 0 -14 -12 -21 -26 -6 -15 -14 -24 -17
-21 -13 12 30 63 70 83 53 27 54 27 61 4z m656 9 c39 -14 79 -46 79 -66 0 -7
-3 -12 -7 -11 -5 1 -29 -8 -55 -21 -29 -14 -55 -20 -67 -16 -28 9 -27 -3 2
-15 22 -9 22 -9 -3 -9 -36 -1 -55 13 -38 26 7 6 24 13 38 16 22 5 21 5 -5 5
-40 -1 -67 11 -61 27 3 8 -2 16 -10 19 -19 7 -18 33 4 45 23 14 81 14 123 0z
m-152 -79 c12 -10 29 -70 20 -70 -5 0 -9 7 -9 15 0 8 -6 14 -12 13 -9 -2 -14
11 -15 37 -1 22 1 33 4 25 3 -8 9 -17 12 -20z m-588 -23 c-10 -9 -11 -8 -5 6
3 10 9 15 12 12 3 -3 0 -11 -7 -18z m-330 -43 c-11 -15 -21 -21 -21 -14 0 14
32 50 39 44 2 -2 -6 -15 -18 -30z m530 -1 c-8 -15 -10 -15 -11 -2 0 17 10 32
18 25 2 -3 -1 -13 -7 -23z m826 -5 c-3 -7 -5 -2 -5 12 0 14 2 19 5 13 2 -7 2
-19 0 -25z m-950 0 c-3 -8 -6 -5 -6 6 -1 11 2 17 5 13 3 -3 4 -12 1 -19z m93
12 c0 -5 -7 -7 -15 -4 -8 4 -15 8 -15 10 0 2 7 4 15 4 8 0 15 -4 15 -10z
m-123 -22 c-3 -8 -6 -5 -6 6 -1 11 2 17 5 13 3 -3 4 -12 1 -19z m202 0 c1 26
17 28 43 5 28 -25 22 -33 -27 -33 -46 0 -50 4 -38 37 6 16 8 15 14 -7 7 -24 7
-24 8 -2z m339 -14 c-3 -14 -5 -12 -10 9 -3 19 -2 25 4 19 6 -6 8 -18 6 -28z
m-908 -8 c0 -2 -7 -7 -16 -10 -8 -3 -12 -2 -9 4 6 10 25 14 25 6z m967 -38
c-3 -8 -6 -5 -6 6 -1 11 2 17 5 13 3 -3 4 -12 1 -19z m-510 -7 c7 7 20 8 30 4
10 -4 50 -8 88 -9 39 -1 77 -6 85 -11 8 -5 25 -8 38 -6 17 2 22 -3 22 -21 1
-20 2 -21 11 -5 15 25 29 21 29 -9 0 -24 2 -25 18 -13 15 13 16 12 3 -3 -7
-10 -17 -16 -21 -13 -4 3 -11 -2 -14 -10 -3 -10 -14 -14 -28 -10 -13 2 -62 6
-110 9 -48 2 -94 8 -101 15 -8 6 -17 8 -20 5 -3 -4 -14 -3 -24 1 -10 4 -31 8
-47 8 -29 0 -66 23 -66 42 0 5 5 3 10 -5 8 -12 10 -9 10 13 0 30 16 37 23 10
4 -15 6 -14 12 5 7 21 9 21 24 8 13 -12 20 -13 28 -5z m-426 -54 c-10 -9 -11
-8 -5 6 3 10 9 15 12 12 3 -3 0 -11 -7 -18z m1149 -17 c0 -11 -5 -20 -11 -20
-6 0 -8 -7 -4 -17 5 -14 4 -15 -6 -6 -10 10 -9 15 0 27 7 8 10 20 6 26 -3 5
-1 10 4 10 6 0 11 -9 11 -20z m-90 -104 c0 -3 -4 -8 -10 -11 -5 -3 -10 -1 -10
4 0 6 5 11 10 11 6 0 10 -2 10 -4z m-1006 -471 c-4 -16 -3 -17 5 -5 6 8 11 12
11 8 0 -16 4 -23 22 -42 10 -11 16 -22 13 -25 -3 -2 -12 4 -20 15 -13 16 -14
17 -9 1 4 -10 15 -22 26 -28 11 -6 26 -26 34 -45 8 -19 20 -37 28 -40 7 -3 11
-16 8 -33 -4 -31 10 -46 35 -37 14 6 14 8 -3 21 -10 8 -14 15 -8 15 16 0 37
-27 30 -38 -3 -6 1 -15 9 -22 8 -7 15 -22 15 -35 0 -23 22 -47 53 -58 10 -4
15 -11 12 -17 -3 -5 0 -10 7 -10 10 0 10 -2 -1 -9 -9 -6 -10 -10 -2 -16 7 -4
18 -2 26 5 10 9 15 6 21 -12 4 -13 7 -26 6 -30 -1 -5 4 -8 12 -8 18 0 28 -27
13 -34 -7 -3 -5 -4 4 -3 9 1 33 -15 53 -36 32 -34 39 -37 70 -32 38 8 78 -17
69 -42 -5 -13 -3 -13 16 -1 18 11 23 11 31 -1 7 -12 14 -13 32 -4 20 9 27 8
36 -6 10 -14 11 -14 6 4 -5 19 -5 19 8 -1 10 -16 18 -19 33 -13 33 13 41 10
17 -7 -12 -8 -22 -24 -22 -34 0 -10 -5 -22 -12 -26 -7 -4 -8 -3 -4 4 4 7 2 12
-3 12 -6 0 -11 -4 -11 -8 0 -4 -17 -14 -37 -21 -77 -27 -103 -44 -119 -76 -13
-28 -22 -34 -62 -40 -55 -8 -73 -20 -65 -43 4 -13 3 -14 -5 -4 -5 8 -12 13
-16 13 -13 -2 -56 32 -56 44 0 27 -184 200 -202 189 -7 -5 -8 -3 -3 5 8 14
-79 196 -99 208 -8 5 -26 46 -41 93 -22 68 -28 105 -28 185 -1 111 1 124 26
149 9 10 20 29 24 44 7 26 7 25 14 -13 4 -22 5 -49 3 -60z m-69 45 c-3 -5 -11
-10 -16 -10 -6 0 -7 5 -4 10 3 6 11 10 16 10 6 0 7 -4 4 -10z m1156 -40 c18
-16 31 -32 28 -34 -3 -3 -20 10 -38 29 -40 43 -34 46 10 5z m46 -92 c2 -18 0
-20 -7 -8 -12 18 -13 30 -2 30 4 0 9 -10 9 -22z m13 -32 c0 -3 -4 -8 -10 -11
-5 -3 -10 -1 -10 4 0 6 5 11 10 11 6 0 10 -2 10 -4z m-350 -436 c0 -5 -5 -10
-11 -10 -5 0 -7 5 -4 10 3 6 8 10 11 10 2 0 4 -4 4 -10z m-2350 -237 c0 -14
-3 -23 -7 -20 -3 4 -12 -1 -20 -11 -8 -10 -7 -3 4 21 20 44 23 46 23 10z m-57
-98 c-3 -9 -8 -14 -10 -11 -3 3 -2 9 2 15 9 16 15 13 8 -4z m-68 -175 c-13
-21 20 -87 70 -140 29 -30 56 -65 59 -77 5 -14 32 -33 81 -57 69 -33 75 -38
81 -73 4 -21 13 -51 21 -66 12 -24 18 -27 47 -21 24 4 36 2 42 -9 5 -8 30 -37
55 -65 l46 -51 -5 44 c-5 45 4 55 26 33 6 -6 60 -15 119 -19 222 -16 524 -51
718 -85 173 -30 279 -46 460 -68 81 -10 377 -25 620 -31 287 -7 525 -21 605
-35 100 -17 394 -50 455 -50 l60 0 2 -79 c1 -47 8 -91 16 -108 34 -65 22 -115
-31 -136 -106 -42 -177 -44 -532 -12 -85 7 -274 19 -420 25 -557 23 -674 31
-955 65 -22 3 -107 17 -190 31 -258 43 -332 53 -625 89 -212 26 -248 43 -264
125 -13 63 -16 68 -35 63 -9 -2 -53 2 -97 11 -43 8 -80 13 -82 11 -2 -1 7 -14
20 -29 19 -22 34 -27 96 -32 57 -6 75 -11 83 -26 13 -25 3 -55 -26 -74 -35
-23 -72 -9 -98 37 -15 26 -30 39 -44 40 -13 1 -26 2 -30 3 -5 1 -37 6 -73 10
-116 14 -335 144 -361 214 -6 14 -7 50 -3 79 l6 53 29 -44 c43 -69 224 -180
315 -195 32 -5 60 -8 62 -6 2 2 -3 14 -12 27 -10 16 -27 24 -48 26 -46 3 -99
21 -123 42 -11 9 -47 33 -80 53 -63 37 -104 76 -125 116 -12 24 -8 113 10 196
39 176 47 205 55 205 4 0 3 -5 0 -10z m3003 -537 c3 -45 0 -56 -22 -78 -22
-22 -33 -25 -68 -22 -58 6 -74 29 -70 100 l4 58 76 -3 77 -3 3 -52z m-131
-109 c-3 -3 -12 -4 -19 -1 -8 3 -5 6 6 6 11 1 17 -2 13 -5z m-2287 -239 c24
-21 153 -52 300 -70 172 -21 299 -39 460 -65 102 -17 203 -32 225 -35 22 -3
83 -11 135 -19 141 -22 421 -42 875 -61 149 -6 316 -16 612 -36 131 -8 201 -9
253 -1 80 12 140 39 156 70 9 19 11 19 21 3 14 -22 -28 -87 -72 -113 -56 -32
-256 -52 -545 -52 -251 -1 -660 9 -780 19 -30 3 -98 7 -150 10 -247 15 -303
22 -1055 145 -261 43 -320 60 -465 133 -32 16 -37 58 -13 111 l18 41 3 -31 c2
-18 12 -40 22 -49z m3007 43 c-3 -7 -5 -2 -5 12 0 14 2 19 5 13 2 -7 2 -19 0
-25z m116 -31 c-12 -40 -19 -54 -26 -45 -6 9 -7 5 -4 -12 3 -14 1 -34 -3 -45
-8 -18 -9 -18 -9 4 -1 29 -6 25 -15 -12 -4 -19 -3 -26 4 -22 13 8 13 5 -1 -34
-6 -17 -18 -31 -26 -31 -12 0 -14 11 -10 53 5 59 30 131 41 120 4 -5 7 -1 6 7
-6 40 1 60 19 60 11 0 23 5 26 11 14 22 13 2 -2 -54z m-3742 -250 c72 -41 200
-72 323 -81 43 -3 84 -10 89 -15 19 -19 55 -12 80 15 26 28 67 30 75 4 5 -13
3 -13 -13 0 -17 14 -17 14 -4 -8 8 -12 15 -18 17 -12 2 6 16 3 33 -6 17 -8 28
-21 26 -27 -2 -7 0 -20 5 -30 5 -10 7 -21 5 -23 -6 -6 -53 40 -59 58 -8 22
-58 -11 -58 -38 0 -25 -33 -38 -60 -24 -8 5 -63 8 -120 8 -149 -2 -252 21
-356 78 -46 25 -89 55 -95 66 -6 12 -8 40 -4 69 l7 50 22 -24 c12 -13 51 -40
87 -60z m3724 31 c-4 -13 -9 -31 -11 -40 -6 -21 -34 -24 -34 -4 0 29 20 66 35
66 12 0 15 -6 10 -22z m-3862 -558 c59 -39 71 -44 238 -79 166 -36 209 -38
264 -12 22 10 60 21 85 24 44 7 44 6 20 -9 -14 -8 -17 -13 -8 -10 10 3 20 1
23 -5 4 -5 11 -7 16 -3 6 3 5 -3 -3 -15 -7 -12 -16 -21 -19 -21 -4 0 -30 -16
-59 -36 -46 -32 -57 -35 -94 -29 -22 3 -99 10 -171 14 -141 10 -174 15 -250
39 -66 20 -115 53 -115 76 0 19 21 96 26 96 2 0 23 -13 47 -30z m747 -59 c0
-14 -18 -23 -30 -16 -6 4 -8 11 -5 16 8 12 35 12 35 0z m-50 -21 c0 -5 -2 -10
-4 -10 -3 0 -8 5 -11 10 -3 6 -1 10 4 10 6 0 11 -4 11 -10z m-724 -197 c75
-34 218 -89 401 -153 45 -16 111 -34 147 -41 36 -6 68 -15 71 -19 3 -5 -11 -4
-30 1 -20 6 -45 7 -56 4 l-21 -7 21 -15 c12 -8 24 -12 29 -9 4 2 16 -2 27 -10
18 -13 14 -14 -42 -10 -33 2 -74 11 -90 19 -15 8 -46 18 -68 21 -142 26 -463
163 -466 199 0 7 -2 22 -5 35 -2 12 -2 22 0 22 2 0 39 -16 82 -37z m721 -145
c-2 -13 -4 -3 -4 22 0 25 2 35 4 23 2 -13 2 -33 0 -45z m-817 -28 c0 -5 -7
-10 -15 -10 -8 0 -15 5 -15 10 0 6 7 10 15 10 8 0 15 -4 15 -10z"/>
<path d="M13426 7604 c-4 -9 -5 -17 -4 -18 2 -1 12 -8 23 -16 19 -14 19 -14 4
5 -9 11 -14 26 -12 33 7 18 -4 15 -11 -4z"/>
<path d="M13450 7601 c0 -6 5 -13 10 -16 6 -3 10 1 10 9 0 9 -4 16 -10 16 -5
0 -10 -4 -10 -9z"/>
<path d="M13095 7430 c-10 -11 -16 -22 -13 -25 3 -3 13 4 23 15 10 11 16 22
13 25 -3 3 -13 -4 -23 -15z"/>
<path d="M13640 7025 c-11 -13 -10 -14 4 -9 9 3 16 10 16 15 0 13 -6 11 -20
-6z"/>
<path d="M13720 7030 c0 -5 5 -10 11 -10 5 0 7 5 4 10 -3 6 -8 10 -11 10 -2 0
-4 -4 -4 -10z"/>
<path d="M13617 6983 c-4 -3 -7 -11 -7 -17 0 -6 5 -5 12 2 6 6 9 14 7 17 -3 3
-9 2 -12 -2z"/>
<path d="M13233 6955 c0 -9 4 -14 9 -13 5 2 10 8 10 13 0 5 -5 11 -10 13 -5 1
-9 -4 -9 -13z"/>
<path d="M13380 6956 c0 -9 5 -16 10 -16 6 0 10 4 10 9 0 6 -4 13 -10 16 -5 3
-10 -1 -10 -9z"/>
<path d="M13231 6923 c-1 -17 16 -25 25 -12 4 7 3 9 -4 5 -5 -3 -13 0 -15 6
-4 9 -6 10 -6 1z"/>
<path d="M13305 6920 c-3 -5 -1 -10 4 -10 6 0 11 5 11 10 0 6 -2 10 -4 10 -3
0 -8 -4 -11 -10z"/>
<path d="M13870 6911 c0 -6 5 -13 11 -17 6 -3 9 -15 6 -25 -3 -11 -1 -17 3
-14 5 3 11 1 15 -5 13 -21 23 -9 12 15 -7 14 -15 25 -19 25 -5 0 -8 7 -8 15 0
8 -4 15 -10 15 -5 0 -10 -4 -10 -9z"/>
<path d="M13960 6860 c0 -7 -7 -22 -17 -32 -9 -10 -12 -18 -6 -18 13 0 38 48
30 57 -4 3 -7 0 -7 -7z"/>
<path d="M13683 6575 c-3 -9 -3 -18 -1 -21 3 -3 8 4 11 16 6 23 -1 27 -10 5z"/>
<path d="M14090 6586 c0 -2 7 -7 16 -10 8 -3 12 -2 9 4 -6 10 -25 14 -25 6z"/>
<path d="M13805 6560 c-3 -6 1 -7 9 -4 18 7 21 14 7 14 -6 0 -13 -4 -16 -10z"/>
<path d="M13755 6549 c-11 -17 1 -21 15 -4 8 9 8 15 2 15 -6 0 -14 -5 -17 -11z"/>
<path d="M13408 6543 c7 -3 16 -2 19 1 4 3 -2 6 -13 5 -11 0 -14 -3 -6 -6z"/>
<path d="M13800 6183 c0 -4 5 -15 10 -23 8 -13 10 -13 10 2 0 9 -4 20 -10 23
-5 3 -10 3 -10 -2z"/>
<path d="M13940 5660 c0 -5 5 -10 10 -10 6 0 10 5 10 10 0 6 -4 10 -10 10 -5
0 -10 -4 -10 -10z"/>
<path d="M13870 5640 c-14 -11 -31 -18 -37 -15 -7 2 -13 0 -13 -5 0 -6 -6 -10
-13 -10 -8 0 -22 -8 -32 -18 -16 -14 -31 -17 -79 -14 -38 3 -57 1 -53 -6 4 -5
-4 -12 -18 -14 -14 -3 -25 0 -26 6 0 6 -4 2 -9 -9 -5 -11 -9 -14 -9 -7 -1 20
-26 14 -51 -13 -24 -26 -21 -32 9 -16 13 8 18 6 18 -6 0 -9 -9 -18 -20 -21
-13 -3 -15 -7 -6 -12 7 -5 21 0 33 11 19 19 21 19 33 3 8 -12 9 -21 3 -29 -5
-7 -7 -15 -3 -18 3 -4 6 -21 5 -39 0 -29 1 -30 9 -10 4 12 11 22 15 22 3 0 4
-7 0 -15 -3 -8 -1 -15 4 -15 5 0 10 10 12 23 2 12 8 20 13 19 6 -2 9 -8 7 -14
-1 -5 2 -7 8 -3 8 5 8 11 0 20 -8 10 -9 19 -1 32 6 10 11 12 11 6 0 -7 4 -13
10 -13 5 0 7 7 4 15 -5 11 -2 13 10 9 9 -3 16 -10 16 -15 0 -5 4 -9 9 -9 5 0
7 9 4 20 -3 11 0 20 6 20 6 0 11 -4 11 -10 0 -5 5 -10 11 -10 5 0 8 4 5 9 -4
5 3 7 14 4 13 -3 20 0 20 8 0 11 2 11 10 -1 7 -11 10 -7 10 18 0 34 -23 45
-34 16 -5 -12 -8 -13 -20 -2 -8 7 -12 17 -9 21 3 5 7 6 11 3 3 -3 10 1 16 10
6 8 21 16 34 17 12 0 38 18 58 39 38 41 35 50 -6 18z m-220 -94 c0 -2 -7 -6
-15 -10 -8 -3 -15 -1 -15 4 0 6 7 10 15 10 8 0 15 -2 15 -4z m-10 -96 c0 -5
-5 -10 -11 -10 -5 0 -7 5 -4 10 3 6 8 10 11 10 2 0 4 -4 4 -10z"/>
<path d="M13580 5487 c0 -11 -4 -15 -12 -11 -6 4 -8 3 -4 -4 3 -5 0 -12 -6
-15 -7 -2 -10 -7 -7 -11 3 -4 16 1 28 11 15 13 18 22 11 33 -8 13 -10 12 -10
-3z"/>
<path d="M13616 5364 c-5 -14 -4 -15 9 -4 17 14 19 20 6 20 -5 0 -12 -7 -15
-16z"/>
<path d="M13698 5323 c7 -3 16 -2 19 1 4 3 -2 6 -13 5 -11 0 -14 -3 -6 -6z"/>
<path d="M13431 5984 c0 -11 3 -14 6 -6 3 7 2 16 -1 19 -3 4 -6 -2 -5 -13z"/>
<path d="M13300 4876 c0 -2 7 -7 16 -10 8 -3 12 -2 9 4 -6 10 -25 14 -25 6z"/>
<path d="M13440 4750 c-8 -5 -12 -11 -10 -14 3 -2 14 2 24 10 22 15 10 19 -14
4z"/>
<path d="M13790 4550 c0 -5 5 -10 11 -10 5 0 7 5 4 10 -3 6 -8 10 -11 10 -2 0
-4 -4 -4 -10z"/>
<path d="M11830 3621 c0 -8 68 -101 75 -101 2 0 2 6 1 14 -2 16 -76 101 -76
87z"/>
<path d="M11920 3520 c0 -5 5 -10 11 -10 5 0 7 5 4 10 -3 6 -8 10 -11 10 -2 0
-4 -4 -4 -10z"/>
<path d="M15171 3224 c0 -11 3 -14 6 -6 3 7 2 16 -1 19 -3 4 -6 -2 -5 -13z"/>
<path d="M15116 3065 c-3 -8 -1 -15 4 -15 6 0 10 7 10 15 0 8 -2 15 -4 15 -2
0 -6 -7 -10 -15z"/>
<path d="M15200 1915 c0 -11 -9 -43 -20 -72 -23 -62 -20 -75 33 -130 l40 -42
-13 -45 c-11 -39 -10 -50 4 -81 18 -38 46 -56 135 -86 302 -106 479 -154 538
-147 20 2 29 10 34 31 12 44 28 238 32 373 l3 120 -29 -14 c-25 -12 -61 -14
-210 -8 -329 13 -487 44 -534 105 -11 14 -12 14 -13 -4z"/>
<path d="M11940 1485 c0 -32 4 -45 14 -45 8 0 21 -3 30 -6 13 -5 11 3 -7 45
-12 28 -25 51 -29 51 -5 0 -8 -20 -8 -45z"/>
<path d="M15202 1493 c-7 -22 -12 -73 -12 -112 0 -75 -11 -107 -57 -169 -30
-40 -57 -39 -118 2 -41 28 -56 27 -48 -4 4 -14 14 -20 33 -20 41 0 57 -22 65
-89 5 -48 11 -62 27 -67 13 -4 24 -1 29 7 5 9 9 9 9 3 0 -7 21 -15 48 -18 26
-4 90 -18 142 -32 52 -14 146 -32 209 -40 63 -8 122 -19 130 -23 29 -16 164
-42 171 -34 10 11 77 221 85 267 7 36 7 36 -27 36 -19 0 -81 13 -139 29 -349
99 -491 171 -522 265 l-13 38 -12 -39z"/>
<path d="M14933 1164 c-4 -10 -13 -14 -28 -10 -15 4 -39 -6 -78 -32 -31 -20
-54 -38 -53 -39 6 -7 162 -20 167 -14 11 10 17 111 7 111 -5 0 -11 -7 -15 -16z"/>
</g>
</svg>
